<mxfile host="app.diagrams.net" modified="2023-07-06T19:56:06.870Z" agent="Mozilla/5.0 (X11; Linux x86_64) AppleWebKit/537.36 (KHTML, like Gecko) Chrome/113.0.0.0 Safari/537.36 OPR/99.0.0.0" etag="BblwFDZJYhsfGd4l5nBa" version="21.5.2" type="google" pages="3">
  <diagram name="Painel Administrador" id="7C8im0sJTky_JdKgXDHC">
    <mxGraphModel grid="1" page="1" gridSize="10" guides="1" tooltips="1" connect="1" arrows="1" fold="1" pageScale="1" pageWidth="827" pageHeight="1169" background="none" math="0" shadow="0">
      <root>
        <mxCell id="0" />
        <mxCell id="1" parent="0" />
        <object placeholders="1" c4Name="Painel do administrador" c4Type="ContainerScopeBoundary" c4Application="Componente" label="&lt;font style=&quot;font-size: 16px&quot;&gt;&lt;b&gt;&lt;div style=&quot;text-align: left&quot;&gt;%c4Name%&lt;/div&gt;&lt;/b&gt;&lt;/font&gt;&lt;div style=&quot;text-align: left&quot;&gt;[%c4Application%]&lt;/div&gt;" id="lVLjG7v-7WJhE6taT89X-1">
          <mxCell style="rounded=1;fontSize=11;whiteSpace=wrap;html=1;dashed=1;arcSize=20;fillColor=none;strokeColor=#666666;fontColor=#333333;labelBackgroundColor=none;align=left;verticalAlign=bottom;labelBorderColor=none;spacingTop=0;spacing=10;dashPattern=8 4;metaEdit=1;rotatable=0;perimeter=rectanglePerimeter;noLabel=0;labelPadding=0;allowArrows=0;connectable=0;expand=0;recursiveResize=0;editable=1;pointerEvents=0;absoluteArcSize=1;points=[[0.25,0,0],[0.5,0,0],[0.75,0,0],[1,0.25,0],[1,0.5,0],[1,0.75,0],[0.75,1,0],[0.5,1,0],[0.25,1,0],[0,0.75,0],[0,0.5,0],[0,0.25,0]];" vertex="1" parent="1">
            <mxGeometry x="-480" y="220" width="1770" height="480" as="geometry" />
          </mxCell>
        </object>
        <mxCell id="9nza7NxpDGj4Udulx8Mx-7" style="rounded=0;orthogonalLoop=1;jettySize=auto;html=1;dashed=1;entryX=0;entryY=0.25;entryDx=0;entryDy=0;entryPerimeter=0;" edge="1" parent="1" source="vU_MiSqIyPKrIeqT_UN2-4" target="ENA24MGiPalyHlKbkRgR-2">
          <mxGeometry relative="1" as="geometry" />
        </mxCell>
        <mxCell id="ScQrOQ6v2pXzk_WmUeYG-7" value="&lt;div&gt;Envia os dados de autenticação à&lt;br&gt;&lt;/div&gt;&lt;div&gt;(HTTP/REST)&lt;br&gt;&lt;/div&gt;" style="edgeLabel;html=1;align=center;verticalAlign=middle;resizable=0;points=[];" vertex="1" connectable="0" parent="9nza7NxpDGj4Udulx8Mx-7">
          <mxGeometry x="-0.3514" y="4" relative="1" as="geometry">
            <mxPoint as="offset" />
          </mxGeometry>
        </mxCell>
        <object placeholders="1" c4Name="Login" c4Type="Componente" c4Technology="Vue.js, Bootstrap" c4Description="Validar dados inseridos" label="&lt;font style=&quot;font-size: 16px&quot;&gt;&lt;b&gt;%c4Name%&lt;/b&gt;&lt;/font&gt;&lt;div&gt;[%c4Type%: %c4Technology%]&lt;/div&gt;&lt;br&gt;&lt;div&gt;&lt;font style=&quot;font-size: 11px&quot;&gt;%c4Description%&lt;/font&gt;&lt;/div&gt;" id="vU_MiSqIyPKrIeqT_UN2-4">
          <mxCell style="rounded=1;whiteSpace=wrap;html=1;labelBackgroundColor=none;fillColor=#63BEF2;fontColor=#ffffff;align=center;arcSize=6;strokeColor=#2086C9;metaEdit=1;resizable=0;points=[[0.25,0,0],[0.5,0,0],[0.75,0,0],[1,0.25,0],[1,0.5,0],[1,0.75,0],[0.75,1,0],[0.5,1,0],[0.25,1,0],[0,0.75,0],[0,0.5,0],[0,0.25,0]];" vertex="1" parent="1">
            <mxGeometry x="-150" y="360" width="240" height="120" as="geometry" />
          </mxCell>
        </object>
        <mxCell id="9nza7NxpDGj4Udulx8Mx-8" style="rounded=0;orthogonalLoop=1;jettySize=auto;html=1;entryX=0.25;entryY=0;entryDx=0;entryDy=0;entryPerimeter=0;dashed=1;jumpStyle=none;" edge="1" parent="1" target="ENA24MGiPalyHlKbkRgR-2">
          <mxGeometry relative="1" as="geometry">
            <mxPoint x="230" y="510" as="sourcePoint" />
          </mxGeometry>
        </mxCell>
        <mxCell id="ScQrOQ6v2pXzk_WmUeYG-10" value="&lt;div&gt;Envia dados de usuários à&lt;br&gt;&lt;/div&gt;&lt;div&gt;(HTTP/REST)&lt;br&gt;&lt;/div&gt;" style="edgeLabel;html=1;align=center;verticalAlign=middle;resizable=0;points=[];" vertex="1" connectable="0" parent="9nza7NxpDGj4Udulx8Mx-8">
          <mxGeometry x="0.103" y="-2" relative="1" as="geometry">
            <mxPoint x="-1" as="offset" />
          </mxGeometry>
        </mxCell>
        <object placeholders="1" c4Name="Cadastro de usuários" c4Type="Componente" c4Technology="Vue.js, Bootstrap" c4Description="Exibe tela de cadastro de novos usuários no sistema." label="&lt;font style=&quot;font-size: 16px&quot;&gt;&lt;b&gt;%c4Name%&lt;/b&gt;&lt;/font&gt;&lt;div&gt;[%c4Type%: %c4Technology%]&lt;/div&gt;&lt;br&gt;&lt;div&gt;&lt;font style=&quot;font-size: 11px&quot;&gt;%c4Description%&lt;/font&gt;&lt;/div&gt;" id="vU_MiSqIyPKrIeqT_UN2-5">
          <mxCell style="rounded=1;whiteSpace=wrap;html=1;labelBackgroundColor=none;fillColor=#63BEF2;fontColor=#ffffff;align=center;arcSize=6;strokeColor=#2086C9;metaEdit=1;resizable=0;points=[[0.25,0,0],[0.5,0,0],[0.75,0,0],[1,0.25,0],[1,0.5,0],[1,0.75,0],[0.75,1,0],[0.5,1,0],[0.25,1,0],[0,0.75,0],[0,0.5,0],[0,0.25,0]];" vertex="1" parent="1">
            <mxGeometry x="110" y="390" width="240" height="120" as="geometry" />
          </mxCell>
        </object>
        <mxCell id="9nza7NxpDGj4Udulx8Mx-9" style="rounded=0;orthogonalLoop=1;jettySize=auto;html=1;entryX=0.5;entryY=0;entryDx=0;entryDy=0;entryPerimeter=0;dashed=1;" edge="1" parent="1" source="vU_MiSqIyPKrIeqT_UN2-6" target="ENA24MGiPalyHlKbkRgR-2">
          <mxGeometry relative="1" as="geometry" />
        </mxCell>
        <mxCell id="9nza7NxpDGj4Udulx8Mx-15" value="Entrega os dados do&amp;nbsp;&lt;br&gt;&lt;div&gt;cadastro/edição à&lt;/div&gt;(HTTP/REST)" style="edgeLabel;html=1;align=center;verticalAlign=middle;resizable=0;points=[];" connectable="0" vertex="1" parent="9nza7NxpDGj4Udulx8Mx-9">
          <mxGeometry x="-0.0333" relative="1" as="geometry">
            <mxPoint as="offset" />
          </mxGeometry>
        </mxCell>
        <object placeholders="1" c4Name="Cadastro/Edição de métodos de avaliação " c4Type="Componente" c4Technology="Vue.js, Bootstrap" c4Description="Exibe tela de cadastro de métodos de avaliação." label="&lt;font style=&quot;font-size: 16px&quot;&gt;&lt;b&gt;%c4Name%&lt;/b&gt;&lt;/font&gt;&lt;div&gt;[%c4Type%: %c4Technology%]&lt;/div&gt;&lt;br&gt;&lt;div&gt;&lt;font style=&quot;font-size: 11px&quot;&gt;%c4Description%&lt;/font&gt;&lt;/div&gt;" id="vU_MiSqIyPKrIeqT_UN2-6">
          <mxCell style="rounded=1;whiteSpace=wrap;html=1;labelBackgroundColor=none;fillColor=#63BEF2;fontColor=#ffffff;align=center;arcSize=6;strokeColor=#2086C9;metaEdit=1;resizable=0;points=[[0.25,0,0],[0.5,0,0],[0.75,0,0],[1,0.25,0],[1,0.5,0],[1,0.75,0],[0.75,1,0],[0.5,1,0],[0.25,1,0],[0,0.75,0],[0,0.5,0],[0,0.25,0]];" vertex="1" parent="1">
            <mxGeometry x="310" y="520" width="240" height="120" as="geometry" />
          </mxCell>
        </object>
        <mxCell id="9nza7NxpDGj4Udulx8Mx-10" style="rounded=0;orthogonalLoop=1;jettySize=auto;html=1;entryX=0.75;entryY=0;entryDx=0;entryDy=0;entryPerimeter=0;dashed=1;exitX=0.5;exitY=1;exitDx=0;exitDy=0;exitPerimeter=0;" edge="1" parent="1" source="vU_MiSqIyPKrIeqT_UN2-20" target="ENA24MGiPalyHlKbkRgR-2">
          <mxGeometry relative="1" as="geometry" />
        </mxCell>
        <mxCell id="ScQrOQ6v2pXzk_WmUeYG-12" value="Entrega os dados do&amp;nbsp;&lt;br&gt;&lt;div&gt;cadastro/edição à&lt;/div&gt;(HTTP/REST)" style="edgeLabel;html=1;align=center;verticalAlign=middle;resizable=0;points=[];" vertex="1" connectable="0" parent="9nza7NxpDGj4Udulx8Mx-10">
          <mxGeometry x="0.0251" y="1" relative="1" as="geometry">
            <mxPoint x="-9" y="11" as="offset" />
          </mxGeometry>
        </mxCell>
        <object placeholders="1" c4Name="Cadastro/Edição de critérios de avaliação" c4Type="Componente" c4Technology="Vue.js, Bootstrap" c4Description="Exibe tela de listagem de critérios de avaliação." label="&lt;font style=&quot;font-size: 16px&quot;&gt;&lt;b&gt;%c4Name%&lt;/b&gt;&lt;/font&gt;&lt;div&gt;[%c4Type%: %c4Technology%]&lt;/div&gt;&lt;br&gt;&lt;div&gt;&lt;font style=&quot;font-size: 11px&quot;&gt;%c4Description%&lt;/font&gt;&lt;/div&gt;" id="vU_MiSqIyPKrIeqT_UN2-20">
          <mxCell style="rounded=1;whiteSpace=wrap;html=1;labelBackgroundColor=none;fillColor=#63BEF2;fontColor=#ffffff;align=center;arcSize=6;strokeColor=#2086C9;metaEdit=1;resizable=0;points=[[0.25,0,0],[0.5,0,0],[0.75,0,0],[1,0.25,0],[1,0.5,0],[1,0.75,0],[0.75,1,0],[0.5,1,0],[0.25,1,0],[0,0.75,0],[0,0.5,0],[0,0.25,0]];" vertex="1" parent="1">
            <mxGeometry x="510" y="390" width="240" height="120" as="geometry" />
          </mxCell>
        </object>
        <mxCell id="FHcufYEbzqSGIYOyX7K0-3" style="rounded=0;orthogonalLoop=1;jettySize=auto;html=1;entryX=0.5;entryY=0;entryDx=0;entryDy=0;entryPerimeter=0;dashed=1;" edge="1" parent="1" source="FHcufYEbzqSGIYOyX7K0-1" target="vU_MiSqIyPKrIeqT_UN2-4">
          <mxGeometry relative="1" as="geometry" />
        </mxCell>
        <mxCell id="FHcufYEbzqSGIYOyX7K0-4" value="Acessa ao painel por meio de" style="edgeLabel;html=1;align=center;verticalAlign=middle;resizable=0;points=[];" connectable="0" vertex="1" parent="FHcufYEbzqSGIYOyX7K0-3">
          <mxGeometry x="-0.1232" y="1" relative="1" as="geometry">
            <mxPoint as="offset" />
          </mxGeometry>
        </mxCell>
        <mxCell id="9nza7NxpDGj4Udulx8Mx-4" style="rounded=0;orthogonalLoop=1;jettySize=auto;html=1;entryX=0.5;entryY=0;entryDx=0;entryDy=0;entryPerimeter=0;dashed=1;" edge="1" parent="1" source="FHcufYEbzqSGIYOyX7K0-1" target="vU_MiSqIyPKrIeqT_UN2-5">
          <mxGeometry relative="1" as="geometry" />
        </mxCell>
        <mxCell id="b7YiTFJpOYunVDqZ6YjC-3" value="Insere novos usuários em" style="edgeLabel;html=1;align=center;verticalAlign=middle;resizable=0;points=[];" vertex="1" connectable="0" parent="9nza7NxpDGj4Udulx8Mx-4">
          <mxGeometry x="-0.1103" y="1" relative="1" as="geometry">
            <mxPoint as="offset" />
          </mxGeometry>
        </mxCell>
        <mxCell id="9nza7NxpDGj4Udulx8Mx-5" style="rounded=0;orthogonalLoop=1;jettySize=auto;html=1;entryX=0.5;entryY=0;entryDx=0;entryDy=0;entryPerimeter=0;dashed=1;" edge="1" parent="1" source="FHcufYEbzqSGIYOyX7K0-1" target="vU_MiSqIyPKrIeqT_UN2-6">
          <mxGeometry relative="1" as="geometry" />
        </mxCell>
        <mxCell id="b7YiTFJpOYunVDqZ6YjC-4" value="Insere/altera métodos de avaliação" style="edgeLabel;html=1;align=center;verticalAlign=middle;resizable=0;points=[];" vertex="1" connectable="0" parent="9nza7NxpDGj4Udulx8Mx-5">
          <mxGeometry x="-0.1588" y="2" relative="1" as="geometry">
            <mxPoint as="offset" />
          </mxGeometry>
        </mxCell>
        <mxCell id="9nza7NxpDGj4Udulx8Mx-6" style="rounded=0;orthogonalLoop=1;jettySize=auto;html=1;entryX=0.5;entryY=0;entryDx=0;entryDy=0;entryPerimeter=0;exitX=0.75;exitY=1;exitDx=0;exitDy=0;exitPerimeter=0;dashed=1;" edge="1" parent="1" source="FHcufYEbzqSGIYOyX7K0-1" target="vU_MiSqIyPKrIeqT_UN2-20">
          <mxGeometry relative="1" as="geometry" />
        </mxCell>
        <mxCell id="b7YiTFJpOYunVDqZ6YjC-5" value="Insere/altera critérios de avaliação" style="edgeLabel;html=1;align=center;verticalAlign=middle;resizable=0;points=[];" vertex="1" connectable="0" parent="9nza7NxpDGj4Udulx8Mx-6">
          <mxGeometry x="0.1099" y="1" relative="1" as="geometry">
            <mxPoint as="offset" />
          </mxGeometry>
        </mxCell>
        <mxCell id="9nza7NxpDGj4Udulx8Mx-13" style="rounded=0;orthogonalLoop=1;jettySize=auto;html=1;entryX=0.5;entryY=0;entryDx=0;entryDy=0;entryPerimeter=0;dashed=1;" edge="1" parent="1" source="FHcufYEbzqSGIYOyX7K0-1" target="b7YiTFJpOYunVDqZ6YjC-2">
          <mxGeometry relative="1" as="geometry" />
        </mxCell>
        <mxCell id="b7YiTFJpOYunVDqZ6YjC-6" value="Visualiza a lista de critérios" style="edgeLabel;html=1;align=center;verticalAlign=middle;resizable=0;points=[];" vertex="1" connectable="0" parent="9nza7NxpDGj4Udulx8Mx-13">
          <mxGeometry x="0.103" y="-3" relative="1" as="geometry">
            <mxPoint as="offset" />
          </mxGeometry>
        </mxCell>
        <object placeholders="1" c4Name="Administrador" c4Type="Pessoa" c4Description="Administrador responsável pelo sistema." label="&lt;font style=&quot;font-size: 16px&quot;&gt;&lt;b&gt;%c4Name%&lt;/b&gt;&lt;/font&gt;&lt;div&gt;[%c4Type%]&lt;/div&gt;&lt;br&gt;&lt;div&gt;&lt;font style=&quot;font-size: 11px&quot;&gt;&lt;font color=&quot;#cccccc&quot;&gt;%c4Description%&lt;/font&gt;&lt;/div&gt;" id="FHcufYEbzqSGIYOyX7K0-1">
          <mxCell style="html=1;fontSize=11;dashed=0;whiteSpace=wrap;fillColor=#083F75;strokeColor=#06315C;fontColor=#ffffff;shape=mxgraph.c4.person2;align=center;metaEdit=1;points=[[0.5,0,0],[1,0.5,0],[1,0.75,0],[0.75,1,0],[0.5,1,0],[0.25,1,0],[0,0.75,0],[0,0.5,0]];resizable=0;" vertex="1" parent="1">
            <mxGeometry x="330" width="200" height="180" as="geometry" />
          </mxCell>
        </object>
        <object placeholders="1" c4Name="API GM-Learning" c4Type="Container" c4Technology="PHP Laravel" c4Description="Provê as funcionalidades de gerenciamento e acesso de métodos aos usuários" label="&lt;font style=&quot;font-size: 16px&quot;&gt;&lt;b&gt;%c4Name%&lt;/b&gt;&lt;/font&gt;&lt;div&gt;[%c4Type%: %c4Technology%]&lt;/div&gt;&lt;br&gt;&lt;div&gt;&lt;font style=&quot;font-size: 11px&quot;&gt;&lt;font color=&quot;#E6E6E6&quot;&gt;%c4Description%&lt;/font&gt;&lt;/div&gt;" id="ENA24MGiPalyHlKbkRgR-2">
          <mxCell style="rounded=1;whiteSpace=wrap;html=1;fontSize=11;labelBackgroundColor=none;fillColor=#23A2D9;fontColor=#ffffff;align=center;arcSize=10;strokeColor=#0E7DAD;metaEdit=1;resizable=0;points=[[0.25,0,0],[0.5,0,0],[0.75,0,0],[1,0.25,0],[1,0.5,0],[1,0.75,0],[0.75,1,0],[0.5,1,0],[0.25,1,0],[0,0.75,0],[0,0.5,0],[0,0.25,0]];" vertex="1" parent="1">
            <mxGeometry x="310" y="800" width="240" height="120" as="geometry" />
          </mxCell>
        </object>
        <mxCell id="9nza7NxpDGj4Udulx8Mx-11" style="rounded=0;orthogonalLoop=1;jettySize=auto;html=1;entryX=1;entryY=0.25;entryDx=0;entryDy=0;entryPerimeter=0;dashed=1;" edge="1" parent="1" source="b7YiTFJpOYunVDqZ6YjC-1" target="ENA24MGiPalyHlKbkRgR-2">
          <mxGeometry relative="1" as="geometry" />
        </mxCell>
        <mxCell id="ScQrOQ6v2pXzk_WmUeYG-13" value="&lt;div&gt;Requisita lista de métodos à&lt;/div&gt;&lt;div&gt;(HTTP/REST)&lt;br&gt;&lt;/div&gt;" style="edgeLabel;html=1;align=center;verticalAlign=middle;resizable=0;points=[];" vertex="1" connectable="0" parent="9nza7NxpDGj4Udulx8Mx-11">
          <mxGeometry x="-0.1479" relative="1" as="geometry">
            <mxPoint as="offset" />
          </mxGeometry>
        </mxCell>
        <mxCell id="b7YiTFJpOYunVDqZ6YjC-7" style="rounded=0;orthogonalLoop=1;jettySize=auto;html=1;entryX=0.955;entryY=0.906;entryDx=0;entryDy=0;entryPerimeter=0;dashed=1;" edge="1" parent="1" source="b7YiTFJpOYunVDqZ6YjC-1" target="FHcufYEbzqSGIYOyX7K0-1">
          <mxGeometry relative="1" as="geometry" />
        </mxCell>
        <mxCell id="b7YiTFJpOYunVDqZ6YjC-8" value="Visualiza a lista de métodos" style="edgeLabel;html=1;align=center;verticalAlign=middle;resizable=0;points=[];" vertex="1" connectable="0" parent="b7YiTFJpOYunVDqZ6YjC-7">
          <mxGeometry x="-0.1959" y="4" relative="1" as="geometry">
            <mxPoint x="47" y="18" as="offset" />
          </mxGeometry>
        </mxCell>
        <object placeholders="1" c4Name="Listagem de métodos de avaliação " c4Type="Componente" c4Technology="Vue.js, Bootstrap" c4Description="Exibe tela de listagem de métodos de avaliação." label="&lt;font style=&quot;font-size: 16px&quot;&gt;&lt;b&gt;%c4Name%&lt;/b&gt;&lt;/font&gt;&lt;div&gt;[%c4Type%: %c4Technology%]&lt;/div&gt;&lt;br&gt;&lt;div&gt;&lt;font style=&quot;font-size: 11px&quot;&gt;%c4Description%&lt;/font&gt;&lt;/div&gt;" id="b7YiTFJpOYunVDqZ6YjC-1">
          <mxCell style="rounded=1;whiteSpace=wrap;html=1;labelBackgroundColor=none;fillColor=#63BEF2;fontColor=#ffffff;align=center;arcSize=6;strokeColor=#2086C9;metaEdit=1;resizable=0;points=[[0.25,0,0],[0.5,0,0],[0.75,0,0],[1,0.25,0],[1,0.5,0],[1,0.75,0],[0.75,1,0],[0.5,1,0],[0.25,1,0],[0,0.75,0],[0,0.5,0],[0,0.25,0]];" vertex="1" parent="1">
            <mxGeometry x="770" y="360" width="240" height="120" as="geometry" />
          </mxCell>
        </object>
        <mxCell id="9nza7NxpDGj4Udulx8Mx-12" style="rounded=0;orthogonalLoop=1;jettySize=auto;html=1;entryX=1;entryY=0.5;entryDx=0;entryDy=0;entryPerimeter=0;exitX=0.54;exitY=1.012;exitDx=0;exitDy=0;exitPerimeter=0;dashed=1;" edge="1" parent="1" source="b7YiTFJpOYunVDqZ6YjC-2" target="ENA24MGiPalyHlKbkRgR-2">
          <mxGeometry relative="1" as="geometry" />
        </mxCell>
        <mxCell id="ScQrOQ6v2pXzk_WmUeYG-14" value="&lt;div&gt;Requisita lista de critérios à&lt;/div&gt;&lt;div&gt;(HTTP/REST)&lt;br&gt;&lt;/div&gt;" style="edgeLabel;html=1;align=center;verticalAlign=middle;resizable=0;points=[];" vertex="1" connectable="0" parent="9nza7NxpDGj4Udulx8Mx-12">
          <mxGeometry x="0.0208" y="3" relative="1" as="geometry">
            <mxPoint x="-1" as="offset" />
          </mxGeometry>
        </mxCell>
        <object placeholders="1" c4Name="Listagem de critérios de avaliação " c4Type="Componente" c4Technology="Vue.js, Bootstrap" c4Description="Exibe tela de listagem de critérios de avaliação." label="&lt;font style=&quot;font-size: 16px&quot;&gt;&lt;b&gt;%c4Name%&lt;/b&gt;&lt;/font&gt;&lt;div&gt;[%c4Type%: %c4Technology%]&lt;/div&gt;&lt;br&gt;&lt;div&gt;&lt;font style=&quot;font-size: 11px&quot;&gt;%c4Description%&lt;/font&gt;&lt;/div&gt;" id="b7YiTFJpOYunVDqZ6YjC-2">
          <mxCell style="rounded=1;whiteSpace=wrap;html=1;labelBackgroundColor=none;fillColor=#63BEF2;fontColor=#ffffff;align=center;arcSize=6;strokeColor=#2086C9;metaEdit=1;resizable=0;points=[[0.25,0,0],[0.5,0,0],[0.75,0,0],[1,0.25,0],[1,0.5,0],[1,0.75,0],[0.75,1,0],[0.5,1,0],[0.25,1,0],[0,0.75,0],[0,0.5,0],[0,0.25,0]];" vertex="1" parent="1">
            <mxGeometry x="1020" y="310" width="240" height="120" as="geometry" />
          </mxCell>
        </object>
        <mxCell id="ScQrOQ6v2pXzk_WmUeYG-2" style="rounded=0;orthogonalLoop=1;jettySize=auto;html=1;entryX=0;entryY=0.75;entryDx=0;entryDy=0;entryPerimeter=0;dashed=1;exitX=0.5;exitY=0;exitDx=0;exitDy=0;exitPerimeter=0;" edge="1" parent="1" source="b7YiTFJpOYunVDqZ6YjC-9" target="FHcufYEbzqSGIYOyX7K0-1">
          <mxGeometry relative="1" as="geometry" />
        </mxCell>
        <mxCell id="ScQrOQ6v2pXzk_WmUeYG-3" value="Visualiza lista de sugestões de métodos" style="edgeLabel;html=1;align=center;verticalAlign=middle;resizable=0;points=[];" vertex="1" connectable="0" parent="ScQrOQ6v2pXzk_WmUeYG-2">
          <mxGeometry x="0.0437" y="-2" relative="1" as="geometry">
            <mxPoint x="-19" y="-1" as="offset" />
          </mxGeometry>
        </mxCell>
        <mxCell id="ScQrOQ6v2pXzk_WmUeYG-8" style="rounded=0;orthogonalLoop=1;jettySize=auto;html=1;entryX=0;entryY=0.5;entryDx=0;entryDy=0;entryPerimeter=0;dashed=1;exitX=0.5;exitY=1;exitDx=0;exitDy=0;exitPerimeter=0;" edge="1" parent="1" source="b7YiTFJpOYunVDqZ6YjC-9" target="ENA24MGiPalyHlKbkRgR-2">
          <mxGeometry relative="1" as="geometry" />
        </mxCell>
        <mxCell id="ScQrOQ6v2pXzk_WmUeYG-9" value="&lt;div&gt;Requisita lista de sugestões à&lt;/div&gt;&lt;div&gt;(HTTP/REST)&lt;br&gt;&lt;/div&gt;" style="edgeLabel;html=1;align=center;verticalAlign=middle;resizable=0;points=[];" vertex="1" connectable="0" parent="ScQrOQ6v2pXzk_WmUeYG-8">
          <mxGeometry x="-0.1764" relative="1" as="geometry">
            <mxPoint as="offset" />
          </mxGeometry>
        </mxCell>
        <object placeholders="1" c4Name="Listagem de sugestão de métodos" c4Type="Componente" c4Technology="Vue.js, Bootstrap" c4Description="Lista métodos de avaliação sugeridos por usuários avaliadores" label="&lt;font style=&quot;font-size: 16px&quot;&gt;&lt;b&gt;%c4Name%&lt;/b&gt;&lt;/font&gt;&lt;div&gt;[%c4Type%: %c4Technology%]&lt;/div&gt;&lt;br&gt;&lt;div&gt;&lt;font style=&quot;font-size: 11px&quot;&gt;%c4Description%&lt;/font&gt;&lt;/div&gt;" id="b7YiTFJpOYunVDqZ6YjC-9">
          <mxCell style="rounded=1;whiteSpace=wrap;html=1;labelBackgroundColor=none;fillColor=#63BEF2;fontColor=#ffffff;align=center;arcSize=6;strokeColor=#2086C9;metaEdit=1;resizable=0;points=[[0.25,0,0],[0.5,0,0],[0.75,0,0],[1,0.25,0],[1,0.5,0],[1,0.75,0],[0.75,1,0],[0.5,1,0],[0.25,1,0],[0,0.75,0],[0,0.5,0],[0,0.25,0]];" vertex="1" parent="1">
            <mxGeometry x="-400" y="310" width="240" height="120" as="geometry" />
          </mxCell>
        </object>
        <mxCell id="ScQrOQ6v2pXzk_WmUeYG-4" style="rounded=0;orthogonalLoop=1;jettySize=auto;html=1;entryX=0;entryY=0.5;entryDx=0;entryDy=0;entryPerimeter=0;dashed=1;exitX=0.5;exitY=1;exitDx=0;exitDy=0;exitPerimeter=0;" edge="1" parent="1" source="b7YiTFJpOYunVDqZ6YjC-9" target="ENA24MGiPalyHlKbkRgR-2">
          <mxGeometry relative="1" as="geometry" />
        </mxCell>
        <mxCell id="ScQrOQ6v2pXzk_WmUeYG-6" value="Text" style="edgeLabel;html=1;align=center;verticalAlign=middle;resizable=0;points=[];" connectable="0" vertex="1" parent="ScQrOQ6v2pXzk_WmUeYG-4">
          <mxGeometry x="-0.2105" y="-2" relative="1" as="geometry">
            <mxPoint as="offset" />
          </mxGeometry>
        </mxCell>
        <object placeholders="1" c4Name="Diagrama de componente: Painel do administrador" c4Type="ContainerScopeBoundary" c4Description="Terça-feira, 5 de setembro de 2023, 21:05 Horário padrão de Brasília" label="&lt;font style=&quot;font-size: 12px;&quot;&gt;&lt;b style=&quot;font-size: 12px;&quot;&gt;&lt;div style=&quot;text-align: left; font-size: 12px;&quot;&gt;%c4Name%&lt;/div&gt;&lt;/b&gt;&lt;/font&gt;&lt;div style=&quot;text-align: left; font-size: 12px;&quot;&gt;%c4Description%&lt;/div&gt;" id="t9AZDBRcuRwfDp1Qc3Qy-1">
          <mxCell style="text;html=1;strokeColor=none;fillColor=none;align=left;verticalAlign=top;whiteSpace=wrap;rounded=0;metaEdit=1;allowArrows=0;resizable=1;rotatable=0;connectable=0;recursiveResize=0;expand=0;pointerEvents=0;points=[[0.25,0,0],[0.5,0,0],[0.75,0,0],[1,0.25,0],[1,0.5,0],[1,0.75,0],[0.75,1,0],[0.5,1,0],[0.25,1,0],[0,0.75,0],[0,0.5,0],[0,0.25,0]];fontSize=12;" vertex="1" parent="1">
            <mxGeometry x="-480" y="1190" width="380" height="40" as="geometry" />
          </mxCell>
        </object>
        <mxCell id="t9AZDBRcuRwfDp1Qc3Qy-2" value="&lt;b style=&quot;font-size: 18px;&quot;&gt;&lt;font style=&quot;font-size: 18px;&quot;&gt;Legenda&lt;/font&gt;&lt;/b&gt;" style="text;html=1;align=center;verticalAlign=middle;resizable=0;points=[];autosize=1;strokeColor=none;fillColor=none;fontSize=18;" vertex="1" parent="1">
          <mxGeometry x="570" y="940" width="100" height="40" as="geometry" />
        </mxCell>
        <object placeholders="1" c4Name="Nome da pessoa" c4Type="Pessoa" c4Description="Pessoa" label="&lt;font style=&quot;font-size: 16px&quot;&gt;&lt;b&gt;%c4Name%&lt;/b&gt;&lt;/font&gt;&lt;div&gt;[%c4Type%]&lt;/div&gt;&lt;br&gt;&lt;div&gt;&lt;font style=&quot;font-size: 11px&quot;&gt;&lt;font color=&quot;#cccccc&quot;&gt;%c4Description%&lt;/font&gt;&lt;/div&gt;" id="t9AZDBRcuRwfDp1Qc3Qy-3">
          <mxCell style="html=1;fontSize=11;dashed=0;whiteSpace=wrap;fillColor=#083F75;strokeColor=#06315C;fontColor=#ffffff;shape=mxgraph.c4.person2;align=center;metaEdit=1;points=[[0.5,0,0],[1,0.5,0],[1,0.75,0],[0.75,1,0],[0.5,1,0],[0.25,1,0],[0,0.75,0],[0,0.5,0]];resizable=0;" vertex="1" parent="1">
            <mxGeometry x="604" y="990" width="200" height="180" as="geometry" />
          </mxCell>
        </object>
        <object placeholders="1" c4Type="Relationship" c4Description="Relacionamento" label="&lt;div style=&quot;text-align: left&quot;&gt;&lt;div style=&quot;text-align: center&quot;&gt;&lt;b&gt;%c4Description%&lt;/b&gt;&lt;/div&gt;" id="t9AZDBRcuRwfDp1Qc3Qy-4">
          <mxCell style="endArrow=blockThin;html=1;fontSize=10;fontColor=#404040;strokeWidth=1;endFill=1;strokeColor=#828282;elbow=vertical;metaEdit=1;endSize=14;startSize=14;jumpStyle=arc;jumpSize=16;rounded=0;edgeStyle=orthogonalEdgeStyle;dashed=1;" edge="1" parent="1">
            <mxGeometry width="240" relative="1" as="geometry">
              <mxPoint x="584" y="1210" as="sourcePoint" />
              <mxPoint x="824" y="1210" as="targetPoint" />
            </mxGeometry>
          </mxCell>
        </object>
        <object placeholders="1" c4Type="Banco de dados" c4Container="Container" c4Technology="Tecnologias implementadas" c4Description="Descrição do container." label="&lt;font style=&quot;font-size: 16px&quot;&gt;&lt;b&gt;%c4Type%&lt;/b&gt;&lt;/font&gt;&lt;div&gt;[%c4Container%:&amp;nbsp;%c4Technology%]&lt;/div&gt;&lt;br&gt;&lt;div&gt;&lt;font style=&quot;font-size: 11px&quot;&gt;&lt;font color=&quot;#E6E6E6&quot;&gt;%c4Description%&lt;/font&gt;&lt;/div&gt;" id="t9AZDBRcuRwfDp1Qc3Qy-7">
          <mxCell style="shape=cylinder3;size=15;whiteSpace=wrap;html=1;boundedLbl=1;rounded=0;labelBackgroundColor=none;fillColor=#23A2D9;fontSize=12;fontColor=#ffffff;align=center;strokeColor=#0E7DAD;metaEdit=1;points=[[0.5,0,0],[1,0.25,0],[1,0.5,0],[1,0.75,0],[0.5,1,0],[0,0.75,0],[0,0.5,0],[0,0.25,0]];resizable=0;" vertex="1" parent="1">
            <mxGeometry x="830" y="980" width="240" height="120" as="geometry" />
          </mxCell>
        </object>
        <object placeholders="1" c4Name="Nome do componente" c4Type="Componente" c4Technology="Tecnologia utilizada" c4Description="Descrição do componente" label="&lt;font style=&quot;font-size: 16px&quot;&gt;&lt;b&gt;%c4Name%&lt;/b&gt;&lt;/font&gt;&lt;div&gt;[%c4Type%: %c4Technology%]&lt;/div&gt;&lt;br&gt;&lt;div&gt;&lt;font style=&quot;font-size: 11px&quot;&gt;%c4Description%&lt;/font&gt;&lt;/div&gt;" id="t9AZDBRcuRwfDp1Qc3Qy-9">
          <mxCell style="rounded=1;whiteSpace=wrap;html=1;labelBackgroundColor=none;fillColor=#63BEF2;fontColor=#ffffff;align=center;arcSize=6;strokeColor=#2086C9;metaEdit=1;resizable=0;points=[[0.25,0,0],[0.5,0,0],[0.75,0,0],[1,0.25,0],[1,0.5,0],[1,0.75,0],[0.75,1,0],[0.5,1,0],[0.25,1,0],[0,0.75,0],[0,0.5,0],[0,0.25,0]];" vertex="1" parent="1">
            <mxGeometry x="830" y="1110" width="240" height="120" as="geometry" />
          </mxCell>
        </object>
        <object placeholders="1" c4Name="API" c4Type="Container" c4Technology="Tecnologia implementada" c4Description="Descrição do container" label="&lt;font style=&quot;font-size: 16px&quot;&gt;&lt;b&gt;%c4Name%&lt;/b&gt;&lt;/font&gt;&lt;div&gt;[%c4Type%: %c4Technology%]&lt;/div&gt;&lt;br&gt;&lt;div&gt;&lt;font style=&quot;font-size: 11px&quot;&gt;&lt;font color=&quot;#E6E6E6&quot;&gt;%c4Description%&lt;/font&gt;&lt;/div&gt;" id="t9AZDBRcuRwfDp1Qc3Qy-10">
          <mxCell style="rounded=1;whiteSpace=wrap;html=1;fontSize=11;labelBackgroundColor=none;fillColor=#23A2D9;fontColor=#ffffff;align=center;arcSize=10;strokeColor=#0E7DAD;metaEdit=1;resizable=0;points=[[0.25,0,0],[0.5,0,0],[0.75,0,0],[1,0.25,0],[1,0.5,0],[1,0.75,0],[0.75,1,0],[0.5,1,0],[0.25,1,0],[0,0.75,0],[0,0.5,0],[0,0.25,0]];" vertex="1" parent="1">
            <mxGeometry x="1100" y="980" width="240" height="120" as="geometry" />
          </mxCell>
        </object>
      </root>
    </mxGraphModel>
  </diagram>
  <diagram id="rA3mJUYMvw3ttE2eH94X" name="Interface Avaliador">
    <mxGraphModel grid="1" page="1" gridSize="10" guides="1" tooltips="1" connect="1" arrows="1" fold="1" pageScale="1" pageWidth="827" pageHeight="1169" math="0" shadow="0">
      <root>
        <mxCell id="0" />
        <mxCell id="1" parent="0" />
        <mxCell id="PFAN_Pdzk8_iK9EI6GKV-5" style="rounded=0;orthogonalLoop=1;jettySize=auto;html=1;entryX=1;entryY=0.25;entryDx=0;entryDy=0;entryPerimeter=0;dashed=1;jumpStyle=arc;jumpSize=20;" edge="1" parent="1" source="kPpW0Z26tdjgpLl_SqQH-1" target="_vXuCbsoLdIEbQXDZFzd-2">
          <mxGeometry relative="1" as="geometry" />
        </mxCell>
        <mxCell id="VZwcCw19TBIPWVuNQFbi-4" value="Pode relizar busca&lt;br&gt;de métodos via" style="edgeLabel;html=1;align=center;verticalAlign=middle;resizable=0;points=[];" connectable="0" vertex="1" parent="PFAN_Pdzk8_iK9EI6GKV-5">
          <mxGeometry x="-0.6656" y="1" relative="1" as="geometry">
            <mxPoint x="-24" y="-2" as="offset" />
          </mxGeometry>
        </mxCell>
        <mxCell id="PFAN_Pdzk8_iK9EI6GKV-6" style="rounded=0;orthogonalLoop=1;jettySize=auto;html=1;entryX=0.5;entryY=0;entryDx=0;entryDy=0;entryPerimeter=0;dashed=1;jumpStyle=arc;jumpSize=20;" edge="1" parent="1" source="kPpW0Z26tdjgpLl_SqQH-1" target="e_J8sE94JYg_yGbvWnlK-1">
          <mxGeometry relative="1" as="geometry" />
        </mxCell>
        <mxCell id="VZwcCw19TBIPWVuNQFbi-5" value="Pode sugerir a inserção&lt;br&gt;de novos métodos via" style="edgeLabel;html=1;align=center;verticalAlign=middle;resizable=0;points=[];" connectable="0" vertex="1" parent="PFAN_Pdzk8_iK9EI6GKV-6">
          <mxGeometry x="-0.499" y="-1" relative="1" as="geometry">
            <mxPoint x="10" y="1" as="offset" />
          </mxGeometry>
        </mxCell>
        <mxCell id="PFAN_Pdzk8_iK9EI6GKV-7" style="rounded=0;orthogonalLoop=1;jettySize=auto;html=1;entryX=0.5;entryY=0;entryDx=0;entryDy=0;entryPerimeter=0;dashed=1;jumpStyle=arc;jumpSize=20;" edge="1" parent="1" source="kPpW0Z26tdjgpLl_SqQH-1" target="Q4MC9QHsWnL10WRb5o9z-2">
          <mxGeometry relative="1" as="geometry" />
        </mxCell>
        <mxCell id="VZwcCw19TBIPWVuNQFbi-6" value="Pode visualizar&lt;br&gt;a tela de FAQ" style="edgeLabel;html=1;align=center;verticalAlign=middle;resizable=0;points=[];" connectable="0" vertex="1" parent="PFAN_Pdzk8_iK9EI6GKV-7">
          <mxGeometry x="-0.6538" y="2" relative="1" as="geometry">
            <mxPoint x="7" y="-18" as="offset" />
          </mxGeometry>
        </mxCell>
        <mxCell id="PFAN_Pdzk8_iK9EI6GKV-8" style="rounded=0;orthogonalLoop=1;jettySize=auto;html=1;entryX=0.5;entryY=0;entryDx=0;entryDy=0;entryPerimeter=0;dashed=1;jumpStyle=arc;jumpSize=20;" edge="1" parent="1" source="kPpW0Z26tdjgpLl_SqQH-1" target="Q4MC9QHsWnL10WRb5o9z-1">
          <mxGeometry relative="1" as="geometry" />
        </mxCell>
        <mxCell id="VZwcCw19TBIPWVuNQFbi-7" value="Realiza login via" style="edgeLabel;html=1;align=center;verticalAlign=middle;resizable=0;points=[];" connectable="0" vertex="1" parent="PFAN_Pdzk8_iK9EI6GKV-8">
          <mxGeometry x="-0.437" relative="1" as="geometry">
            <mxPoint as="offset" />
          </mxGeometry>
        </mxCell>
        <mxCell id="PFAN_Pdzk8_iK9EI6GKV-9" style="rounded=0;orthogonalLoop=1;jettySize=auto;html=1;entryX=0.25;entryY=0;entryDx=0;entryDy=0;entryPerimeter=0;dashed=1;jumpStyle=arc;jumpSize=20;" edge="1" parent="1" source="kPpW0Z26tdjgpLl_SqQH-1" target="XxEBrqqebH5t4W8HdtCK-1">
          <mxGeometry relative="1" as="geometry" />
        </mxCell>
        <mxCell id="VZwcCw19TBIPWVuNQFbi-8" value="Pode realizar cadastro via" style="edgeLabel;html=1;align=center;verticalAlign=middle;resizable=0;points=[];" connectable="0" vertex="1" parent="PFAN_Pdzk8_iK9EI6GKV-9">
          <mxGeometry x="-0.3773" y="-3" relative="1" as="geometry">
            <mxPoint as="offset" />
          </mxGeometry>
        </mxCell>
        <object placeholders="1" c4Name="Avaliador" c4Type="Pessoa" c4Description="Avaliador usuário do sistema" label="&lt;font style=&quot;font-size: 16px&quot;&gt;&lt;b&gt;%c4Name%&lt;/b&gt;&lt;/font&gt;&lt;div&gt;[%c4Type%]&lt;/div&gt;&lt;br&gt;&lt;div&gt;&lt;font style=&quot;font-size: 11px&quot;&gt;&lt;font color=&quot;#cccccc&quot;&gt;%c4Description%&lt;/font&gt;&lt;/div&gt;" id="kPpW0Z26tdjgpLl_SqQH-1">
          <mxCell style="html=1;fontSize=11;dashed=0;whiteSpace=wrap;fillColor=#083F75;strokeColor=#06315C;fontColor=#ffffff;shape=mxgraph.c4.person2;align=center;metaEdit=1;points=[[0.5,0,0],[1,0.5,0],[1,0.75,0],[0.75,1,0],[0.5,1,0],[0.25,1,0],[0,0.75,0],[0,0.5,0]];resizable=0;" vertex="1" parent="1">
            <mxGeometry x="670" y="-70" width="200" height="180" as="geometry" />
          </mxCell>
        </object>
        <mxCell id="Q4MC9QHsWnL10WRb5o9z-5" style="rounded=0;orthogonalLoop=1;jettySize=auto;html=1;entryX=0.5;entryY=0;entryDx=0;entryDy=0;entryPerimeter=0;dashed=1;jumpStyle=arc;jumpSize=20;" edge="1" parent="1" source="kPpW0Z26tdjgpLl_SqQH-2" target="_vXuCbsoLdIEbQXDZFzd-2">
          <mxGeometry relative="1" as="geometry" />
        </mxCell>
        <mxCell id="FSn_w_SZV_w06Sp8PWyh-1" value="Pode realizar buscas de métodos vía" style="edgeLabel;html=1;align=center;verticalAlign=middle;resizable=0;points=[];" connectable="0" vertex="1" parent="Q4MC9QHsWnL10WRb5o9z-5">
          <mxGeometry x="-0.1407" relative="1" as="geometry">
            <mxPoint x="-17" y="19" as="offset" />
          </mxGeometry>
        </mxCell>
        <mxCell id="PFAN_Pdzk8_iK9EI6GKV-1" style="rounded=0;orthogonalLoop=1;jettySize=auto;html=1;entryX=0.5;entryY=0;entryDx=0;entryDy=0;entryPerimeter=0;dashed=1;jumpStyle=arc;jumpSize=20;" edge="1" parent="1" source="kPpW0Z26tdjgpLl_SqQH-2" target="e_J8sE94JYg_yGbvWnlK-1">
          <mxGeometry relative="1" as="geometry" />
        </mxCell>
        <mxCell id="VZwcCw19TBIPWVuNQFbi-1" value="Pode sugerir a inserção&amp;nbsp;&lt;br&gt;de novos métodos via" style="edgeLabel;html=1;align=center;verticalAlign=middle;resizable=0;points=[];" connectable="0" vertex="1" parent="PFAN_Pdzk8_iK9EI6GKV-1">
          <mxGeometry x="-0.4667" y="-3" relative="1" as="geometry">
            <mxPoint x="3" y="8" as="offset" />
          </mxGeometry>
        </mxCell>
        <mxCell id="PFAN_Pdzk8_iK9EI6GKV-2" style="rounded=0;orthogonalLoop=1;jettySize=auto;html=1;entryX=0.5;entryY=0;entryDx=0;entryDy=0;entryPerimeter=0;dashed=1;jumpStyle=arc;jumpSize=20;" edge="1" parent="1" source="kPpW0Z26tdjgpLl_SqQH-2" target="Q4MC9QHsWnL10WRb5o9z-2">
          <mxGeometry relative="1" as="geometry" />
        </mxCell>
        <mxCell id="VZwcCw19TBIPWVuNQFbi-2" value="Pode visualizar&lt;br&gt;a tela de FAQ" style="edgeLabel;html=1;align=center;verticalAlign=middle;resizable=0;points=[];" connectable="0" vertex="1" parent="PFAN_Pdzk8_iK9EI6GKV-2">
          <mxGeometry x="-0.6985" y="-2" relative="1" as="geometry">
            <mxPoint x="10" y="8" as="offset" />
          </mxGeometry>
        </mxCell>
        <mxCell id="PFAN_Pdzk8_iK9EI6GKV-4" style="rounded=0;orthogonalLoop=1;jettySize=auto;html=1;entryX=0.5;entryY=0;entryDx=0;entryDy=0;entryPerimeter=0;dashed=1;jumpStyle=arc;jumpSize=20;" edge="1" parent="1" source="kPpW0Z26tdjgpLl_SqQH-2" target="Q4MC9QHsWnL10WRb5o9z-1">
          <mxGeometry relative="1" as="geometry" />
        </mxCell>
        <mxCell id="VZwcCw19TBIPWVuNQFbi-3" value="Realiza login via" style="edgeLabel;html=1;align=center;verticalAlign=middle;resizable=0;points=[];" connectable="0" vertex="1" parent="PFAN_Pdzk8_iK9EI6GKV-4">
          <mxGeometry x="-0.7874" y="2" relative="1" as="geometry">
            <mxPoint as="offset" />
          </mxGeometry>
        </mxCell>
        <object placeholders="1" c4Name="Administrador" c4Type="Pessoa" c4Description="Administrador responsável pelo sistema." label="&lt;font style=&quot;font-size: 16px&quot;&gt;&lt;b&gt;%c4Name%&lt;/b&gt;&lt;/font&gt;&lt;div&gt;[%c4Type%]&lt;/div&gt;&lt;br&gt;&lt;div&gt;&lt;font style=&quot;font-size: 11px&quot;&gt;&lt;font color=&quot;#cccccc&quot;&gt;%c4Description%&lt;/font&gt;&lt;/div&gt;" id="kPpW0Z26tdjgpLl_SqQH-2">
          <mxCell style="html=1;fontSize=11;dashed=0;whiteSpace=wrap;fillColor=#083F75;strokeColor=#06315C;fontColor=#ffffff;shape=mxgraph.c4.person2;align=center;metaEdit=1;points=[[0.5,0,0],[1,0.5,0],[1,0.75,0],[0.75,1,0],[0.5,1,0],[0.25,1,0],[0,0.75,0],[0,0.5,0]];resizable=0;" vertex="1" parent="1">
            <mxGeometry x="130" y="-70" width="200" height="180" as="geometry" />
          </mxCell>
        </object>
        <object placeholders="1" c4Name="API GM-Learning" c4Type="Container" c4Technology="PHP e Laravel" c4Description="Provê as funcionalidades de gerenciamento e acesso de métodos e usuários" label="&lt;font style=&quot;font-size: 16px&quot;&gt;&lt;b&gt;%c4Name%&lt;/b&gt;&lt;/font&gt;&lt;div&gt;[%c4Type%: %c4Technology%]&lt;/div&gt;&lt;br&gt;&lt;div&gt;&lt;font style=&quot;font-size: 11px&quot;&gt;&lt;font color=&quot;#E6E6E6&quot;&gt;%c4Description%&lt;/font&gt;&lt;/div&gt;" id="6j-jgdQGCmF0pqRwixhM-1">
          <mxCell style="rounded=1;whiteSpace=wrap;html=1;fontSize=11;labelBackgroundColor=none;fillColor=#23A2D9;fontColor=#ffffff;align=center;arcSize=10;strokeColor=#0E7DAD;metaEdit=1;resizable=0;points=[[0.25,0,0],[0.5,0,0],[0.75,0,0],[1,0.25,0],[1,0.5,0],[1,0.75,0],[0.75,1,0],[0.5,1,0],[0.25,1,0],[0,0.75,0],[0,0.5,0],[0,0.25,0]];" vertex="1" parent="1">
            <mxGeometry x="400" y="700" width="240" height="120" as="geometry" />
          </mxCell>
        </object>
        <object placeholders="1" c4Name="Interface do Avaliador" c4Type="ContainerScopeBoundary" c4Application="Componente" label="&lt;font style=&quot;font-size: 16px&quot;&gt;&lt;b&gt;&lt;div style=&quot;text-align: left&quot;&gt;%c4Name%&lt;/div&gt;&lt;/b&gt;&lt;/font&gt;&lt;div style=&quot;text-align: left&quot;&gt;[%c4Application%]&lt;/div&gt;" id="6j-jgdQGCmF0pqRwixhM-2">
          <mxCell style="rounded=1;fontSize=11;whiteSpace=wrap;html=1;dashed=1;arcSize=20;fillColor=none;strokeColor=#666666;fontColor=#333333;labelBackgroundColor=none;align=left;verticalAlign=bottom;labelBorderColor=none;spacingTop=0;spacing=10;dashPattern=8 4;metaEdit=1;rotatable=0;perimeter=rectanglePerimeter;noLabel=0;labelPadding=0;allowArrows=0;connectable=0;expand=0;recursiveResize=0;editable=1;pointerEvents=0;absoluteArcSize=1;points=[[0.25,0,0],[0.5,0,0],[0.75,0,0],[1,0.25,0],[1,0.5,0],[1,0.75,0],[0.75,1,0],[0.5,1,0],[0.25,1,0],[0,0.75,0],[0,0.5,0],[0,0.25,0]];" vertex="1" parent="1">
            <mxGeometry x="-160" y="230" width="1260" height="440" as="geometry" />
          </mxCell>
        </object>
        <mxCell id="Q4MC9QHsWnL10WRb5o9z-3" style="rounded=0;orthogonalLoop=1;jettySize=auto;html=1;entryX=0.25;entryY=0;entryDx=0;entryDy=0;entryPerimeter=0;dashed=1;" edge="1" parent="1" source="_vXuCbsoLdIEbQXDZFzd-2" target="6j-jgdQGCmF0pqRwixhM-1">
          <mxGeometry relative="1" as="geometry">
            <Array as="points">
              <mxPoint x="-10" y="580" />
            </Array>
          </mxGeometry>
        </mxCell>
        <mxCell id="Q4MC9QHsWnL10WRb5o9z-4" value="Requiisitar métodos de acordo &lt;br&gt;com parâmetros(critérios, tecnologia e perfil)&lt;br&gt;e solicitar impressão de métodos&lt;br&gt;(HTTP/REST)" style="edgeLabel;html=1;align=center;verticalAlign=middle;resizable=0;points=[];" connectable="0" vertex="1" parent="Q4MC9QHsWnL10WRb5o9z-3">
          <mxGeometry x="-0.0056" y="-4" relative="1" as="geometry">
            <mxPoint x="-125" y="-54" as="offset" />
          </mxGeometry>
        </mxCell>
        <object placeholders="1" c4Name="Tela para busca de método" c4Type="Componente" c4Technology="Vue.JS e Bootstrap" c4Description="Buscar método solicitado entre os já cadastrados." label="&lt;font style=&quot;font-size: 16px&quot;&gt;&lt;b&gt;%c4Name%&lt;/b&gt;&lt;/font&gt;&lt;div&gt;[%c4Type%: %c4Technology%]&lt;/div&gt;&lt;br&gt;&lt;div&gt;&lt;font style=&quot;font-size: 11px&quot;&gt;%c4Description%&lt;/font&gt;&lt;/div&gt;" id="_vXuCbsoLdIEbQXDZFzd-2">
          <mxCell style="rounded=1;whiteSpace=wrap;html=1;labelBackgroundColor=none;fillColor=#63BEF2;fontColor=#ffffff;align=center;arcSize=6;strokeColor=#2086C9;metaEdit=1;resizable=0;points=[[0.25,0,0],[0.5,0,0],[0.75,0,0],[1,0.25,0],[1,0.5,0],[1,0.75,0],[0.75,1,0],[0.5,1,0],[0.25,1,0],[0,0.75,0],[0,0.5,0],[0,0.25,0]];" vertex="1" parent="1">
            <mxGeometry x="-140" y="300" width="240" height="120" as="geometry" />
          </mxCell>
        </object>
        <mxCell id="PFAN_Pdzk8_iK9EI6GKV-10" style="rounded=0;orthogonalLoop=1;jettySize=auto;html=1;entryX=0.5;entryY=0;entryDx=0;entryDy=0;entryPerimeter=0;dashed=1;" edge="1" parent="1" source="e_J8sE94JYg_yGbvWnlK-1" target="6j-jgdQGCmF0pqRwixhM-1">
          <mxGeometry relative="1" as="geometry" />
        </mxCell>
        <mxCell id="PFAN_Pdzk8_iK9EI6GKV-13" value="Enviar solicitação de inserção &lt;br&gt;de novo método de avaliação&lt;br&gt;(HTTP/REST)" style="edgeLabel;html=1;align=center;verticalAlign=middle;resizable=0;points=[];" connectable="0" vertex="1" parent="PFAN_Pdzk8_iK9EI6GKV-10">
          <mxGeometry x="-0.0068" relative="1" as="geometry">
            <mxPoint x="-18" y="-14" as="offset" />
          </mxGeometry>
        </mxCell>
        <object placeholders="1" c4Name="Tela de sugestão de novos métodos" c4Type="Componente" c4Technology="Vue.JS e Bootstrap" c4Description="Sugerir a inclusão de novos métodos ao sistema." label="&lt;font style=&quot;font-size: 16px&quot;&gt;&lt;b&gt;%c4Name%&lt;/b&gt;&lt;/font&gt;&lt;div&gt;[%c4Type%: %c4Technology%]&lt;/div&gt;&lt;br&gt;&lt;div&gt;&lt;font style=&quot;font-size: 11px&quot;&gt;%c4Description%&lt;/font&gt;&lt;/div&gt;" id="e_J8sE94JYg_yGbvWnlK-1">
          <mxCell style="rounded=1;whiteSpace=wrap;html=1;labelBackgroundColor=none;fillColor=#63BEF2;fontColor=#ffffff;align=center;arcSize=6;strokeColor=#2086C9;metaEdit=1;resizable=0;points=[[0.25,0,0],[0.5,0,0],[0.75,0,0],[1,0.25,0],[1,0.5,0],[1,0.75,0],[0.75,1,0],[0.5,1,0],[0.25,1,0],[0,0.75,0],[0,0.5,0],[0,0.25,0]];" vertex="1" parent="1">
            <mxGeometry x="110" y="380" width="240" height="120" as="geometry" />
          </mxCell>
        </object>
        <mxCell id="PFAN_Pdzk8_iK9EI6GKV-11" style="rounded=0;orthogonalLoop=1;jettySize=auto;html=1;entryX=0.543;entryY=0.023;entryDx=0;entryDy=0;entryPerimeter=0;dashed=1;" edge="1" parent="1" source="Q4MC9QHsWnL10WRb5o9z-1" target="6j-jgdQGCmF0pqRwixhM-1">
          <mxGeometry relative="1" as="geometry" />
        </mxCell>
        <mxCell id="PFAN_Pdzk8_iK9EI6GKV-14" value="Enviar os dados do usuário&lt;br&gt;para autenticação&lt;br&gt;(HTTP/REST)" style="edgeLabel;html=1;align=center;verticalAlign=middle;resizable=0;points=[];" connectable="0" vertex="1" parent="PFAN_Pdzk8_iK9EI6GKV-11">
          <mxGeometry x="-0.0004" relative="1" as="geometry">
            <mxPoint x="17" y="-17" as="offset" />
          </mxGeometry>
        </mxCell>
        <object placeholders="1" c4Name="Tela de Login" c4Type="Componente" c4Technology="Vue.JS e Bootstrap" c4Description="Validar dados inseridos" label="&lt;font style=&quot;font-size: 16px&quot;&gt;&lt;b&gt;%c4Name%&lt;/b&gt;&lt;/font&gt;&lt;div&gt;[%c4Type%: %c4Technology%]&lt;/div&gt;&lt;br&gt;&lt;div&gt;&lt;font style=&quot;font-size: 11px&quot;&gt;%c4Description%&lt;/font&gt;&lt;/div&gt;" id="Q4MC9QHsWnL10WRb5o9z-1">
          <mxCell style="rounded=1;whiteSpace=wrap;html=1;labelBackgroundColor=none;fillColor=#63BEF2;fontColor=#ffffff;align=center;arcSize=6;strokeColor=#2086C9;metaEdit=1;resizable=0;points=[[0.25,0,0],[0.5,0,0],[0.75,0,0],[1,0.25,0],[1,0.5,0],[1,0.75,0],[0.75,1,0],[0.5,1,0],[0.25,1,0],[0,0.75,0],[0,0.5,0],[0,0.25,0]];" vertex="1" parent="1">
            <mxGeometry x="650" y="380" width="240" height="120" as="geometry" />
          </mxCell>
        </object>
        <object placeholders="1" c4Name="Tela de FAQ" c4Type="Componente" c4Technology="Vue.JS e Bootstrap" c4Description="Tela com as perguntas mais frequentes, para auxiliar usuários à tirarem suas dúvidas." label="&lt;font style=&quot;font-size: 16px&quot;&gt;&lt;b&gt;%c4Name%&lt;/b&gt;&lt;/font&gt;&lt;div&gt;[%c4Type%: %c4Technology%]&lt;/div&gt;&lt;br&gt;&lt;div&gt;&lt;font style=&quot;font-size: 11px&quot;&gt;%c4Description%&lt;/font&gt;&lt;/div&gt;" id="Q4MC9QHsWnL10WRb5o9z-2">
          <mxCell style="rounded=1;whiteSpace=wrap;html=1;labelBackgroundColor=none;fillColor=#63BEF2;fontColor=#ffffff;align=center;arcSize=6;strokeColor=#2086C9;metaEdit=1;resizable=0;points=[[0.25,0,0],[0.5,0,0],[0.75,0,0],[1,0.25,0],[1,0.5,0],[1,0.75,0],[0.75,1,0],[0.5,1,0],[0.25,1,0],[0,0.75,0],[0,0.5,0],[0,0.25,0]];" vertex="1" parent="1">
            <mxGeometry x="390" y="380" width="240" height="120" as="geometry" />
          </mxCell>
        </object>
        <mxCell id="PFAN_Pdzk8_iK9EI6GKV-12" style="rounded=0;orthogonalLoop=1;jettySize=auto;html=1;entryX=0.835;entryY=-0.019;entryDx=0;entryDy=0;entryPerimeter=0;dashed=1;" edge="1" parent="1" target="6j-jgdQGCmF0pqRwixhM-1">
          <mxGeometry relative="1" as="geometry">
            <mxPoint x="999.9999999999995" y="360" as="sourcePoint" />
            <mxPoint x="610" y="689.9999999999998" as="targetPoint" />
            <Array as="points">
              <mxPoint x="1000" y="570" />
            </Array>
          </mxGeometry>
        </mxCell>
        <mxCell id="PFAN_Pdzk8_iK9EI6GKV-16" value="Envia dados do usuário&lt;br&gt;para cadastro&lt;br&gt;(HTTP/REST)" style="edgeLabel;html=1;align=center;verticalAlign=middle;resizable=0;points=[];" connectable="0" vertex="1" parent="PFAN_Pdzk8_iK9EI6GKV-12">
          <mxGeometry x="-0.0577" y="-2" relative="1" as="geometry">
            <mxPoint as="offset" />
          </mxGeometry>
        </mxCell>
        <object placeholders="1" c4Name="Tela de Cadastro" c4Type="Componente" c4Technology="Vue.JS e Bootstrap" c4Description="Permite o cadastro de novos avaliadores." label="&lt;font style=&quot;font-size: 16px&quot;&gt;&lt;b&gt;%c4Name%&lt;/b&gt;&lt;/font&gt;&lt;div&gt;[%c4Type%: %c4Technology%]&lt;/div&gt;&lt;br&gt;&lt;div&gt;&lt;font style=&quot;font-size: 11px&quot;&gt;%c4Description%&lt;/font&gt;&lt;/div&gt;" id="XxEBrqqebH5t4W8HdtCK-1">
          <mxCell style="rounded=1;whiteSpace=wrap;html=1;labelBackgroundColor=none;fillColor=#63BEF2;fontColor=#ffffff;align=center;arcSize=6;strokeColor=#2086C9;metaEdit=1;resizable=0;points=[[0.25,0,0],[0.5,0,0],[0.75,0,0],[1,0.25,0],[1,0.5,0],[1,0.75,0],[0.75,1,0],[0.5,1,0],[0.25,1,0],[0,0.75,0],[0,0.5,0],[0,0.25,0]];" vertex="1" parent="1">
            <mxGeometry x="850" y="250" width="240" height="120" as="geometry" />
          </mxCell>
        </object>
        <object placeholders="1" c4Name="Diagrama de componente: Interface do avaliador" c4Type="ContainerScopeBoundary" c4Description="Terça-feira, 6 de setembro de 2023, 16:55 Horário padrão de Brasília" label="&lt;font style=&quot;font-size: 12px;&quot;&gt;&lt;b style=&quot;font-size: 12px;&quot;&gt;&lt;div style=&quot;text-align: left; font-size: 12px;&quot;&gt;%c4Name%&lt;/div&gt;&lt;/b&gt;&lt;/font&gt;&lt;div style=&quot;text-align: left; font-size: 12px;&quot;&gt;%c4Description%&lt;/div&gt;" id="Eypzeq3IAuO_1qCAHvF_-1">
          <mxCell style="text;html=1;strokeColor=none;fillColor=none;align=left;verticalAlign=top;whiteSpace=wrap;rounded=0;metaEdit=1;allowArrows=0;resizable=1;rotatable=0;connectable=0;recursiveResize=0;expand=0;pointerEvents=0;points=[[0.25,0,0],[0.5,0,0],[0.75,0,0],[1,0.25,0],[1,0.5,0],[1,0.75,0],[0.75,1,0],[0.5,1,0],[0.25,1,0],[0,0.75,0],[0,0.5,0],[0,0.25,0]];fontSize=12;" vertex="1" parent="1">
            <mxGeometry x="-160" y="1000" width="380" height="40" as="geometry" />
          </mxCell>
        </object>
        <mxCell id="Eypzeq3IAuO_1qCAHvF_-2" value="&lt;b style=&quot;font-size: 18px;&quot;&gt;&lt;font style=&quot;font-size: 18px;&quot;&gt;Legenda&lt;/font&gt;&lt;/b&gt;" style="text;html=1;align=center;verticalAlign=middle;resizable=0;points=[];autosize=1;strokeColor=none;fillColor=none;fontSize=18;" vertex="1" parent="1">
          <mxGeometry x="680" y="750" width="100" height="40" as="geometry" />
        </mxCell>
        <object placeholders="1" c4Name="Nome da pessoa" c4Type="Pessoa" c4Description="Pessoa" label="&lt;font style=&quot;font-size: 16px&quot;&gt;&lt;b&gt;%c4Name%&lt;/b&gt;&lt;/font&gt;&lt;div&gt;[%c4Type%]&lt;/div&gt;&lt;br&gt;&lt;div&gt;&lt;font style=&quot;font-size: 11px&quot;&gt;&lt;font color=&quot;#cccccc&quot;&gt;%c4Description%&lt;/font&gt;&lt;/div&gt;" id="Eypzeq3IAuO_1qCAHvF_-3">
          <mxCell style="html=1;fontSize=11;dashed=0;whiteSpace=wrap;fillColor=#083F75;strokeColor=#06315C;fontColor=#ffffff;shape=mxgraph.c4.person2;align=center;metaEdit=1;points=[[0.5,0,0],[1,0.5,0],[1,0.75,0],[0.75,1,0],[0.5,1,0],[0.25,1,0],[0,0.75,0],[0,0.5,0]];resizable=0;" vertex="1" parent="1">
            <mxGeometry x="714" y="800" width="200" height="180" as="geometry" />
          </mxCell>
        </object>
        <object placeholders="1" c4Type="Relationship" c4Description="Relacionamento" label="&lt;div style=&quot;text-align: left&quot;&gt;&lt;div style=&quot;text-align: center&quot;&gt;&lt;b&gt;%c4Description%&lt;/b&gt;&lt;/div&gt;" id="Eypzeq3IAuO_1qCAHvF_-4">
          <mxCell style="endArrow=blockThin;html=1;fontSize=10;fontColor=#404040;strokeWidth=1;endFill=1;strokeColor=#828282;elbow=vertical;metaEdit=1;endSize=14;startSize=14;jumpStyle=arc;jumpSize=16;rounded=0;edgeStyle=orthogonalEdgeStyle;dashed=1;" edge="1" parent="1">
            <mxGeometry width="240" relative="1" as="geometry">
              <mxPoint x="694" y="1020" as="sourcePoint" />
              <mxPoint x="934" y="1020" as="targetPoint" />
            </mxGeometry>
          </mxCell>
        </object>
        <object placeholders="1" c4Name="Nome do componente" c4Type="Componente" c4Technology="Tecnologia utilizada" c4Description="Descrição do componente" label="&lt;font style=&quot;font-size: 16px&quot;&gt;&lt;b&gt;%c4Name%&lt;/b&gt;&lt;/font&gt;&lt;div&gt;[%c4Type%: %c4Technology%]&lt;/div&gt;&lt;br&gt;&lt;div&gt;&lt;font style=&quot;font-size: 11px&quot;&gt;%c4Description%&lt;/font&gt;&lt;/div&gt;" id="Eypzeq3IAuO_1qCAHvF_-6">
          <mxCell style="rounded=1;whiteSpace=wrap;html=1;labelBackgroundColor=none;fillColor=#63BEF2;fontColor=#ffffff;align=center;arcSize=6;strokeColor=#2086C9;metaEdit=1;resizable=0;points=[[0.25,0,0],[0.5,0,0],[0.75,0,0],[1,0.25,0],[1,0.5,0],[1,0.75,0],[0.75,1,0],[0.5,1,0],[0.25,1,0],[0,0.75,0],[0,0.5,0],[0,0.25,0]];" vertex="1" parent="1">
            <mxGeometry x="940" y="920" width="240" height="120" as="geometry" />
          </mxCell>
        </object>
        <object placeholders="1" c4Name="API" c4Type="Container" c4Technology="Tecnologia implementada" c4Description="Descrição do container" label="&lt;font style=&quot;font-size: 16px&quot;&gt;&lt;b&gt;%c4Name%&lt;/b&gt;&lt;/font&gt;&lt;div&gt;[%c4Type%: %c4Technology%]&lt;/div&gt;&lt;br&gt;&lt;div&gt;&lt;font style=&quot;font-size: 11px&quot;&gt;&lt;font color=&quot;#E6E6E6&quot;&gt;%c4Description%&lt;/font&gt;&lt;/div&gt;" id="Eypzeq3IAuO_1qCAHvF_-7">
          <mxCell style="rounded=1;whiteSpace=wrap;html=1;fontSize=11;labelBackgroundColor=none;fillColor=#23A2D9;fontColor=#ffffff;align=center;arcSize=10;strokeColor=#0E7DAD;metaEdit=1;resizable=0;points=[[0.25,0,0],[0.5,0,0],[0.75,0,0],[1,0.25,0],[1,0.5,0],[1,0.75,0],[0.75,1,0],[0.5,1,0],[0.25,1,0],[0,0.75,0],[0,0.5,0],[0,0.25,0]];" vertex="1" parent="1">
            <mxGeometry x="940" y="790" width="240" height="120" as="geometry" />
          </mxCell>
        </object>
      </root>
    </mxGraphModel>
  </diagram>
  <diagram id="RFAbMXw_Z9RXrCIJJR_C" name="API">
    <mxGraphModel grid="1" page="1" gridSize="10" guides="1" tooltips="1" connect="1" arrows="1" fold="1" pageScale="1" pageWidth="827" pageHeight="1169" math="0" shadow="0">
      <root>
        <mxCell id="0" />
        <mxCell id="1" parent="0" />
        <mxCell id="kGk4O7EBd0zO6ehOEHw1-3" style="rounded=0;orthogonalLoop=1;jettySize=auto;html=1;entryX=0.5;entryY=0;entryDx=0;entryDy=0;entryPerimeter=0;dashed=1;" edge="1" parent="1" source="hu-XPiCN3bLA0W8c6C3z-1" target="kGk4O7EBd0zO6ehOEHw1-1">
          <mxGeometry relative="1" as="geometry" />
        </mxCell>
        <mxCell id="0-pc8_zgRZ-CSYjqJZR3-7" value="&lt;div&gt;Envia dados de&lt;/div&gt;&lt;div&gt;usuário para&lt;/div&gt;&lt;div&gt;autenticação&lt;/div&gt;&lt;div&gt;(HTTP/REST)&lt;br&gt;&lt;/div&gt;" style="edgeLabel;html=1;align=center;verticalAlign=middle;resizable=0;points=[];" vertex="1" connectable="0" parent="kGk4O7EBd0zO6ehOEHw1-3">
          <mxGeometry x="-0.2249" y="-1" relative="1" as="geometry">
            <mxPoint x="-47" y="-17" as="offset" />
          </mxGeometry>
        </mxCell>
        <mxCell id="OnPZGE6nGwsmF_z7jk1L-1" style="rounded=0;orthogonalLoop=1;jettySize=auto;html=1;entryX=0.5;entryY=0;entryDx=0;entryDy=0;entryPerimeter=0;dashed=1;" edge="1" parent="1" source="hu-XPiCN3bLA0W8c6C3z-1" target="-neZAnZWiAmQxXk_syRg-2">
          <mxGeometry relative="1" as="geometry">
            <mxPoint x="490" y="290" as="targetPoint" />
          </mxGeometry>
        </mxCell>
        <mxCell id="0-pc8_zgRZ-CSYjqJZR3-5" value="Envia e solicita dados de &lt;br&gt;&lt;div&gt;métodos à&lt;br&gt;&lt;/div&gt;&lt;div&gt;(HTTP/REST)&lt;br&gt;&lt;/div&gt;" style="edgeLabel;html=1;align=center;verticalAlign=middle;resizable=0;points=[];" vertex="1" connectable="0" parent="OnPZGE6nGwsmF_z7jk1L-1">
          <mxGeometry x="-0.032" y="3" relative="1" as="geometry">
            <mxPoint x="-5" y="-2" as="offset" />
          </mxGeometry>
        </mxCell>
        <mxCell id="pZhjZsfNZTJVmzjHbXUH-1" value="Envia os dados de &lt;br&gt;&lt;div&gt;usuários para cadastro à&lt;br&gt;&lt;/div&gt;&lt;div&gt;(HTTP/REST)&lt;br&gt;&lt;/div&gt;" style="rounded=0;orthogonalLoop=1;jettySize=auto;html=1;entryX=0.5;entryY=0;entryDx=0;entryDy=0;entryPerimeter=0;dashed=1;" edge="1" parent="1" source="hu-XPiCN3bLA0W8c6C3z-1" target="-neZAnZWiAmQxXk_syRg-1">
          <mxGeometry x="-0.0064" y="-6" relative="1" as="geometry">
            <mxPoint as="offset" />
          </mxGeometry>
        </mxCell>
        <mxCell id="0-pc8_zgRZ-CSYjqJZR3-3" style="rounded=0;orthogonalLoop=1;jettySize=auto;html=1;entryX=0.25;entryY=0;entryDx=0;entryDy=0;entryPerimeter=0;dashed=1;" edge="1" parent="1" source="hu-XPiCN3bLA0W8c6C3z-1" target="-neZAnZWiAmQxXk_syRg-3">
          <mxGeometry relative="1" as="geometry" />
        </mxCell>
        <mxCell id="0-pc8_zgRZ-CSYjqJZR3-9" value="Envia e solicita dados de &lt;br&gt;&lt;div&gt;critérios à&lt;br&gt;&lt;/div&gt;&lt;div&gt;(HTTP/REST)&lt;br&gt;&lt;/div&gt;" style="edgeLabel;html=1;align=center;verticalAlign=middle;resizable=0;points=[];" vertex="1" connectable="0" parent="0-pc8_zgRZ-CSYjqJZR3-3">
          <mxGeometry x="-0.5023" y="1" relative="1" as="geometry">
            <mxPoint x="-34" y="-34" as="offset" />
          </mxGeometry>
        </mxCell>
        <object placeholders="1" c4Type="Painel do administrador" c4Container="Container" c4Technology="Vue.JS e Bootstrap" c4Description="Painel exclusivo de&#xa;usuários administradores." label="&lt;font style=&quot;font-size: 16px&quot;&gt;&lt;b&gt;%c4Type%&lt;/b&gt;&lt;/font&gt;&lt;div&gt;[%c4Container%:&amp;nbsp;%c4Technology%]&lt;/div&gt;&lt;br&gt;&lt;div&gt;&lt;font style=&quot;font-size: 11px&quot;&gt;&lt;font color=&quot;#E6E6E6&quot;&gt;%c4Description%&lt;/font&gt;&lt;/div&gt;" id="hu-XPiCN3bLA0W8c6C3z-1">
          <mxCell style="shape=mxgraph.c4.webBrowserContainer2;whiteSpace=wrap;html=1;boundedLbl=1;rounded=0;labelBackgroundColor=none;strokeColor=#118ACD;fillColor=#23A2D9;strokeColor=#118ACD;strokeColor2=#0E7DAD;fontSize=12;fontColor=#ffffff;align=center;metaEdit=1;points=[[0.5,0,0],[1,0.25,0],[1,0.5,0],[1,0.75,0],[0.5,1,0],[0,0.75,0],[0,0.5,0],[0,0.25,0]];resizable=0;" vertex="1" parent="1">
            <mxGeometry x="77" y="-50" width="240" height="160" as="geometry" />
          </mxCell>
        </object>
        <mxCell id="kGk4O7EBd0zO6ehOEHw1-4" style="rounded=0;orthogonalLoop=1;jettySize=auto;html=1;entryX=0.5;entryY=0;entryDx=0;entryDy=0;entryPerimeter=0;dashed=1;jumpStyle=arc;jumpSize=20;" edge="1" parent="1" source="hu-XPiCN3bLA0W8c6C3z-2" target="kGk4O7EBd0zO6ehOEHw1-1">
          <mxGeometry relative="1" as="geometry" />
        </mxCell>
        <mxCell id="0-pc8_zgRZ-CSYjqJZR3-8" value="&lt;div&gt;Envia dados de&lt;/div&gt;&lt;div&gt;usuário para&lt;/div&gt;&lt;div&gt;autenticação&lt;/div&gt;&lt;div&gt;(HTTP/REST)&lt;br&gt;&lt;/div&gt;" style="edgeLabel;html=1;align=center;verticalAlign=middle;resizable=0;points=[];" vertex="1" connectable="0" parent="kGk4O7EBd0zO6ehOEHw1-4">
          <mxGeometry x="-0.3486" y="-2" relative="1" as="geometry">
            <mxPoint x="23" y="-14" as="offset" />
          </mxGeometry>
        </mxCell>
        <mxCell id="0-pc8_zgRZ-CSYjqJZR3-1" style="rounded=0;orthogonalLoop=1;jettySize=auto;html=1;entryX=0.5;entryY=0;entryDx=0;entryDy=0;entryPerimeter=0;dashed=1;jumpStyle=arc;jumpSize=20;" edge="1" parent="1" source="hu-XPiCN3bLA0W8c6C3z-2" target="-neZAnZWiAmQxXk_syRg-2">
          <mxGeometry relative="1" as="geometry" />
        </mxCell>
        <mxCell id="0-pc8_zgRZ-CSYjqJZR3-11" value="&lt;div&gt;Realiza busca, solicita impressão e &lt;br&gt;&lt;/div&gt;&lt;div&gt;sugestão de cadastro de &lt;br&gt;&lt;/div&gt;&lt;div&gt;métodos de avaliação &lt;br&gt;&lt;/div&gt;&lt;div&gt;(HTTP/REST)&lt;br&gt;&lt;/div&gt;" style="edgeLabel;html=1;align=center;verticalAlign=middle;resizable=0;points=[];" vertex="1" connectable="0" parent="0-pc8_zgRZ-CSYjqJZR3-1">
          <mxGeometry x="-0.3858" y="2" relative="1" as="geometry">
            <mxPoint x="-21" y="-21" as="offset" />
          </mxGeometry>
        </mxCell>
        <mxCell id="0-pc8_zgRZ-CSYjqJZR3-14" style="rounded=0;orthogonalLoop=1;jettySize=auto;html=1;dashed=1;" edge="1" parent="1" source="hu-XPiCN3bLA0W8c6C3z-2" target="-neZAnZWiAmQxXk_syRg-3">
          <mxGeometry relative="1" as="geometry" />
        </mxCell>
        <mxCell id="0-pc8_zgRZ-CSYjqJZR3-15" value="&lt;div&gt;Solicita lista de &lt;br&gt;&lt;/div&gt;&lt;div&gt;critérios de avaliação&lt;/div&gt;&lt;div&gt;(HTTP/REST)&lt;br&gt;&lt;/div&gt;" style="edgeLabel;html=1;align=center;verticalAlign=middle;resizable=0;points=[];" vertex="1" connectable="0" parent="0-pc8_zgRZ-CSYjqJZR3-14">
          <mxGeometry x="-0.4748" y="-3" relative="1" as="geometry">
            <mxPoint as="offset" />
          </mxGeometry>
        </mxCell>
        <object placeholders="1" c4Type="Interface do avaliador" c4Container="Container" c4Technology="Vue.JS e Bootstrap" c4Description="Interface de usuários&#xa;usuários avaliadores." label="&lt;font style=&quot;font-size: 16px&quot;&gt;&lt;b&gt;%c4Type%&lt;/b&gt;&lt;/font&gt;&lt;div&gt;[%c4Container%:&amp;nbsp;%c4Technology%]&lt;/div&gt;&lt;br&gt;&lt;div&gt;&lt;font style=&quot;font-size: 11px&quot;&gt;&lt;font color=&quot;#E6E6E6&quot;&gt;%c4Description%&lt;/font&gt;&lt;/div&gt;" id="hu-XPiCN3bLA0W8c6C3z-2">
          <mxCell style="shape=mxgraph.c4.webBrowserContainer2;whiteSpace=wrap;html=1;boundedLbl=1;rounded=0;labelBackgroundColor=none;strokeColor=#118ACD;fillColor=#23A2D9;strokeColor=#118ACD;strokeColor2=#0E7DAD;fontSize=12;fontColor=#ffffff;align=center;metaEdit=1;points=[[0.5,0,0],[1,0.25,0],[1,0.5,0],[1,0.75,0],[0.5,1,0],[0,0.75,0],[0,0.5,0],[0,0.25,0]];resizable=0;" vertex="1" parent="1">
            <mxGeometry x="740" y="-50" width="240" height="160" as="geometry" />
          </mxCell>
        </object>
        <object placeholders="1" c4Type="Banco de dados" c4Container="Container" c4Technology="MySQL" c4Description="Responsável por armazenar dados do&#xa;sistema, como métodos e usuários." label="&lt;font style=&quot;font-size: 16px&quot;&gt;&lt;b&gt;%c4Type%&lt;/b&gt;&lt;/font&gt;&lt;div&gt;[%c4Container%:&amp;nbsp;%c4Technology%]&lt;/div&gt;&lt;br&gt;&lt;div&gt;&lt;font style=&quot;font-size: 11px&quot;&gt;&lt;font color=&quot;#E6E6E6&quot;&gt;%c4Description%&lt;/font&gt;&lt;/div&gt;" id="hu-XPiCN3bLA0W8c6C3z-3">
          <mxCell style="shape=cylinder3;size=15;whiteSpace=wrap;html=1;boundedLbl=1;rounded=0;labelBackgroundColor=none;fillColor=#23A2D9;fontSize=12;fontColor=#ffffff;align=center;strokeColor=#0E7DAD;metaEdit=1;points=[[0.5,0,0],[1,0.25,0],[1,0.5,0],[1,0.75,0],[0.5,1,0],[0,0.75,0],[0,0.5,0],[0,0.25,0]];resizable=0;" vertex="1" parent="1">
            <mxGeometry x="-170" y="700" width="240" height="120" as="geometry" />
          </mxCell>
        </object>
        <object placeholders="1" c4Name="Google API" c4Type="API" c4Description="Realizar autenticação de&#xa;usuários via Gmail" label="&lt;font style=&quot;font-size: 16px&quot;&gt;&lt;b&gt;%c4Name%&lt;/b&gt;&lt;/font&gt;&lt;div&gt;[%c4Type%]&lt;/div&gt;&lt;br&gt;&lt;div&gt;&lt;font style=&quot;font-size: 11px&quot;&gt;&lt;font color=&quot;#cccccc&quot;&gt;%c4Description%&lt;/font&gt;&lt;/div&gt;" id="hu-XPiCN3bLA0W8c6C3z-4">
          <mxCell style="rounded=1;whiteSpace=wrap;html=1;labelBackgroundColor=none;fillColor=#8C8496;fontColor=#ffffff;align=center;arcSize=10;strokeColor=#736782;metaEdit=1;resizable=0;points=[[0.25,0,0],[0.5,0,0],[0.75,0,0],[1,0.25,0],[1,0.5,0],[1,0.75,0],[0.75,1,0],[0.5,1,0],[0.25,1,0],[0,0.75,0],[0,0.5,0],[0,0.25,0]];" vertex="1" parent="1">
            <mxGeometry x="400" y="700" width="240" height="120" as="geometry" />
          </mxCell>
        </object>
        <object placeholders="1" c4Name="MailChimp" c4Type="Sistema" c4Description="Sistema para envio de&#xa;emails da MailChimp" label="&lt;font style=&quot;font-size: 16px&quot;&gt;&lt;b&gt;%c4Name%&lt;/b&gt;&lt;/font&gt;&lt;div&gt;[%c4Type%]&lt;/div&gt;&lt;br&gt;&lt;div&gt;&lt;font style=&quot;font-size: 11px&quot;&gt;&lt;font color=&quot;#cccccc&quot;&gt;%c4Description%&lt;/font&gt;&lt;/div&gt;" id="hu-XPiCN3bLA0W8c6C3z-5">
          <mxCell style="rounded=1;whiteSpace=wrap;html=1;labelBackgroundColor=none;fillColor=#8C8496;fontColor=#ffffff;align=center;arcSize=10;strokeColor=#736782;metaEdit=1;resizable=0;points=[[0.25,0,0],[0.5,0,0],[0.75,0,0],[1,0.25,0],[1,0.5,0],[1,0.75,0],[0.75,1,0],[0.5,1,0],[0.25,1,0],[0,0.75,0],[0,0.5,0],[0,0.25,0]];" vertex="1" parent="1">
            <mxGeometry x="100" y="700" width="240" height="120" as="geometry" />
          </mxCell>
        </object>
        <object placeholders="1" c4Name="API" c4Type="ContainerScopeBoundary" c4Application="Componente" label="&lt;font style=&quot;font-size: 16px&quot;&gt;&lt;b&gt;&lt;div style=&quot;text-align: left&quot;&gt;%c4Name%&lt;/div&gt;&lt;/b&gt;&lt;/font&gt;&lt;div style=&quot;text-align: left&quot;&gt;[%c4Application%]&lt;/div&gt;" id="hu-XPiCN3bLA0W8c6C3z-6">
          <mxCell style="rounded=1;fontSize=11;whiteSpace=wrap;html=1;dashed=1;arcSize=20;fillColor=none;strokeColor=#666666;fontColor=#333333;labelBackgroundColor=none;align=left;verticalAlign=bottom;labelBorderColor=none;spacingTop=0;spacing=10;dashPattern=8 4;metaEdit=1;rotatable=0;perimeter=rectanglePerimeter;noLabel=0;labelPadding=0;allowArrows=0;connectable=0;expand=0;recursiveResize=0;editable=1;pointerEvents=0;absoluteArcSize=1;points=[[0.25,0,0],[0.5,0,0],[0.75,0,0],[1,0.25,0],[1,0.5,0],[1,0.75,0],[0.75,1,0],[0.5,1,0],[0.25,1,0],[0,0.75,0],[0,0.5,0],[0,0.25,0]];" vertex="1" parent="1">
            <mxGeometry x="-200" y="220" width="1150" height="440" as="geometry" />
          </mxCell>
        </object>
        <mxCell id="kGk4O7EBd0zO6ehOEHw1-2" style="rounded=0;orthogonalLoop=1;jettySize=auto;html=1;entryX=0.5;entryY=0;entryDx=0;entryDy=0;entryPerimeter=0;dashed=1;startArrow=classic;startFill=1;endArrow=none;endFill=0;exitX=0.546;exitY=0.992;exitDx=0;exitDy=0;exitPerimeter=0;" edge="1" parent="1" source="kGk4O7EBd0zO6ehOEHw1-1" target="hu-XPiCN3bLA0W8c6C3z-4">
          <mxGeometry relative="1" as="geometry" />
        </mxCell>
        <mxCell id="OnPZGE6nGwsmF_z7jk1L-7" value="&lt;div&gt;Envia autorização de acesso à&lt;br&gt;&lt;/div&gt;&lt;div&gt;(OAuth 2.0)&lt;br&gt;&lt;/div&gt;" style="edgeLabel;html=1;align=center;verticalAlign=middle;resizable=0;points=[];" connectable="0" vertex="1" parent="kGk4O7EBd0zO6ehOEHw1-2">
          <mxGeometry x="-0.1337" y="2" relative="1" as="geometry">
            <mxPoint x="-1" y="91" as="offset" />
          </mxGeometry>
        </mxCell>
        <mxCell id="kGk4O7EBd0zO6ehOEHw1-5" style="rounded=0;orthogonalLoop=1;jettySize=auto;html=1;dashed=1;jumpStyle=arc;jumpSize=20;entryX=0.748;entryY=0.017;entryDx=0;entryDy=0;entryPerimeter=0;" edge="1" parent="1" source="kGk4O7EBd0zO6ehOEHw1-1" target="hu-XPiCN3bLA0W8c6C3z-3">
          <mxGeometry relative="1" as="geometry">
            <mxPoint x="270" y="530" as="targetPoint" />
          </mxGeometry>
        </mxCell>
        <mxCell id="OnPZGE6nGwsmF_z7jk1L-5" value="Solicita os dados&lt;br&gt;de login ao&lt;br&gt;(TCP/IP)" style="edgeLabel;html=1;align=center;verticalAlign=middle;resizable=0;points=[];" connectable="0" vertex="1" parent="kGk4O7EBd0zO6ehOEHw1-5">
          <mxGeometry x="-0.2129" y="-1" relative="1" as="geometry">
            <mxPoint x="110" y="-78" as="offset" />
          </mxGeometry>
        </mxCell>
        <object placeholders="1" c4Name="Login Controller" c4Type="Componente" c4Technology="PHP Laravel" c4Description="Realiza autenticação de usuários" label="&lt;font style=&quot;font-size: 16px&quot;&gt;&lt;b&gt;%c4Name%&lt;/b&gt;&lt;/font&gt;&lt;div&gt;[%c4Type%: %c4Technology%]&lt;/div&gt;&lt;br&gt;&lt;div&gt;&lt;font style=&quot;font-size: 11px&quot;&gt;%c4Description%&lt;/font&gt;&lt;/div&gt;" id="kGk4O7EBd0zO6ehOEHw1-1">
          <mxCell style="rounded=1;whiteSpace=wrap;html=1;labelBackgroundColor=none;fillColor=#63BEF2;fontColor=#ffffff;align=center;arcSize=6;strokeColor=#2086C9;metaEdit=1;resizable=0;points=[[0.25,0,0],[0.5,0,0],[0.75,0,0],[1,0.25,0],[1,0.5,0],[1,0.75,0],[0.75,1,0],[0.5,1,0],[0.25,1,0],[0,0.75,0],[0,0.5,0],[0,0.25,0]];" vertex="1" parent="1">
            <mxGeometry x="387" y="280" width="240" height="120" as="geometry" />
          </mxCell>
        </object>
        <mxCell id="OnPZGE6nGwsmF_z7jk1L-2" style="rounded=0;orthogonalLoop=1;jettySize=auto;html=1;dashed=1;exitX=0.5;exitY=1;exitDx=0;exitDy=0;exitPerimeter=0;jumpStyle=arc;jumpSize=20;entryX=0.5;entryY=0;entryDx=0;entryDy=0;entryPerimeter=0;" edge="1" parent="1" source="-neZAnZWiAmQxXk_syRg-2" target="hu-XPiCN3bLA0W8c6C3z-5">
          <mxGeometry relative="1" as="geometry">
            <mxPoint x="490" y="410" as="sourcePoint" />
            <mxPoint x="230" y="650" as="targetPoint" />
          </mxGeometry>
        </mxCell>
        <mxCell id="OnPZGE6nGwsmF_z7jk1L-3" value="&lt;div&gt;Solicita envio de &lt;br&gt;&lt;/div&gt;&lt;div&gt;emails de confirmação &lt;br&gt;&lt;/div&gt;&lt;div&gt;de cadastro de método ao&lt;/div&gt;(SMTP)" style="edgeLabel;html=1;align=center;verticalAlign=middle;resizable=0;points=[];" connectable="0" vertex="1" parent="OnPZGE6nGwsmF_z7jk1L-2">
          <mxGeometry x="-0.181" y="2" relative="1" as="geometry">
            <mxPoint x="-2" y="-62" as="offset" />
          </mxGeometry>
        </mxCell>
        <mxCell id="dsDbQRS9jQcQWpvBWdFG-1" style="rounded=0;orthogonalLoop=1;jettySize=auto;html=1;entryX=0.5;entryY=0;entryDx=0;entryDy=0;entryPerimeter=0;dashed=1;" edge="1" parent="1" source="-neZAnZWiAmQxXk_syRg-1" target="hu-XPiCN3bLA0W8c6C3z-3">
          <mxGeometry relative="1" as="geometry" />
        </mxCell>
        <mxCell id="0-pc8_zgRZ-CSYjqJZR3-16" value="&lt;div&gt;Envia e solicita dados &lt;br&gt;&lt;/div&gt;&lt;div&gt;de usuários ao&lt;/div&gt;&lt;div&gt;(HTTP/REST)&lt;br&gt;&lt;/div&gt;" style="edgeLabel;html=1;align=center;verticalAlign=middle;resizable=0;points=[];" vertex="1" connectable="0" parent="dsDbQRS9jQcQWpvBWdFG-1">
          <mxGeometry x="-0.1867" y="3" relative="1" as="geometry">
            <mxPoint as="offset" />
          </mxGeometry>
        </mxCell>
        <object placeholders="1" c4Name="Usuários Controller" c4Type="Componente" c4Technology="PHP Laravel" c4Description="Realiza a inserção e busca de informações de usuários no banco de dados." label="&lt;font style=&quot;font-size: 16px&quot;&gt;&lt;b&gt;%c4Name%&lt;/b&gt;&lt;/font&gt;&lt;div&gt;[%c4Type%: %c4Technology%]&lt;/div&gt;&lt;br&gt;&lt;div&gt;&lt;font style=&quot;font-size: 11px&quot;&gt;%c4Description%&lt;/font&gt;&lt;/div&gt;" id="-neZAnZWiAmQxXk_syRg-1">
          <mxCell style="rounded=1;whiteSpace=wrap;html=1;labelBackgroundColor=none;fillColor=#63BEF2;fontColor=#ffffff;align=center;arcSize=6;strokeColor=#2086C9;metaEdit=1;resizable=0;points=[[0.25,0,0],[0.5,0,0],[0.75,0,0],[1,0.25,0],[1,0.5,0],[1,0.75,0],[0.75,1,0],[0.5,1,0],[0.25,1,0],[0,0.75,0],[0,0.5,0],[0,0.25,0]];" vertex="1" parent="1">
            <mxGeometry x="-170" y="280" width="240" height="120" as="geometry" />
          </mxCell>
        </object>
        <mxCell id="0-pc8_zgRZ-CSYjqJZR3-6" style="rounded=0;orthogonalLoop=1;jettySize=auto;html=1;entryX=0.667;entryY=0;entryDx=0;entryDy=0;entryPerimeter=0;dashed=1;exitX=0.25;exitY=1;exitDx=0;exitDy=0;exitPerimeter=0;" edge="1" parent="1" source="-neZAnZWiAmQxXk_syRg-2" target="hu-XPiCN3bLA0W8c6C3z-3">
          <mxGeometry relative="1" as="geometry" />
        </mxCell>
        <mxCell id="0-pc8_zgRZ-CSYjqJZR3-17" value="&lt;div style=&quot;border-color: var(--border-color);&quot;&gt;Envia e solicita dados&lt;br style=&quot;border-color: var(--border-color);&quot;&gt;&lt;/div&gt;&lt;div style=&quot;border-color: var(--border-color);&quot;&gt;de avaliação ao&lt;/div&gt;&lt;div style=&quot;border-color: var(--border-color);&quot;&gt;(HTTP/REST)&lt;/div&gt;" style="edgeLabel;html=1;align=center;verticalAlign=middle;resizable=0;points=[];" vertex="1" connectable="0" parent="0-pc8_zgRZ-CSYjqJZR3-6">
          <mxGeometry x="-0.1848" y="1" relative="1" as="geometry">
            <mxPoint x="1" as="offset" />
          </mxGeometry>
        </mxCell>
        <object placeholders="1" c4Name="Métodos de avaliação Controller" c4Type="Componente" c4Technology="PHP Laravel" c4Description="Realiza a inserção e busca de informações de métodos no banco de dados." label="&lt;font style=&quot;font-size: 16px&quot;&gt;&lt;b&gt;%c4Name%&lt;/b&gt;&lt;/font&gt;&lt;div&gt;[%c4Type%: %c4Technology%]&lt;/div&gt;&lt;br&gt;&lt;div&gt;&lt;font style=&quot;font-size: 11px&quot;&gt;%c4Description%&lt;/font&gt;&lt;/div&gt;" id="-neZAnZWiAmQxXk_syRg-2">
          <mxCell style="rounded=1;whiteSpace=wrap;html=1;labelBackgroundColor=none;fillColor=#63BEF2;fontColor=#ffffff;align=center;arcSize=6;strokeColor=#2086C9;metaEdit=1;resizable=0;points=[[0.25,0,0],[0.5,0,0],[0.75,0,0],[1,0.25,0],[1,0.5,0],[1,0.75,0],[0.75,1,0],[0.5,1,0],[0.25,1,0],[0,0.75,0],[0,0.5,0],[0,0.25,0]];" vertex="1" parent="1">
            <mxGeometry x="100" y="280" width="240" height="120" as="geometry" />
          </mxCell>
        </object>
        <mxCell id="dsDbQRS9jQcQWpvBWdFG-2" style="rounded=0;orthogonalLoop=1;jettySize=auto;html=1;dashed=1;entryX=0.908;entryY=0.075;entryDx=0;entryDy=0;entryPerimeter=0;jumpStyle=arc;jumpSize=20;" edge="1" parent="1" source="-neZAnZWiAmQxXk_syRg-3" target="hu-XPiCN3bLA0W8c6C3z-3">
          <mxGeometry relative="1" as="geometry" />
        </mxCell>
        <mxCell id="0-pc8_zgRZ-CSYjqJZR3-18" value="&lt;div&gt;Envia e solicita dados &lt;br&gt;&lt;/div&gt;&lt;div&gt;de critérios ao&lt;/div&gt;&lt;div&gt;(HTTP/REST)&lt;br&gt;&lt;/div&gt;" style="edgeLabel;html=1;align=center;verticalAlign=middle;resizable=0;points=[];" vertex="1" connectable="0" parent="dsDbQRS9jQcQWpvBWdFG-2">
          <mxGeometry x="-0.1602" relative="1" as="geometry">
            <mxPoint as="offset" />
          </mxGeometry>
        </mxCell>
        <object placeholders="1" c4Name="Critérios de avaliação Controller" c4Type="Componente" c4Technology="PHP Laravel" c4Description="Realiza a inserção e busca de informações de critérios no banco de dados." label="&lt;font style=&quot;font-size: 16px&quot;&gt;&lt;b&gt;%c4Name%&lt;/b&gt;&lt;/font&gt;&lt;div&gt;[%c4Type%: %c4Technology%]&lt;/div&gt;&lt;br&gt;&lt;div&gt;&lt;font style=&quot;font-size: 11px&quot;&gt;%c4Description%&lt;/font&gt;&lt;/div&gt;" id="-neZAnZWiAmQxXk_syRg-3">
          <mxCell style="rounded=1;whiteSpace=wrap;html=1;labelBackgroundColor=none;fillColor=#63BEF2;fontColor=#ffffff;align=center;arcSize=6;strokeColor=#2086C9;metaEdit=1;resizable=0;points=[[0.25,0,0],[0.5,0,0],[0.75,0,0],[1,0.25,0],[1,0.5,0],[1,0.75,0],[0.75,1,0],[0.5,1,0],[0.25,1,0],[0,0.75,0],[0,0.5,0],[0,0.25,0]];" vertex="1" parent="1">
            <mxGeometry x="670" y="280" width="240" height="120" as="geometry" />
          </mxCell>
        </object>
        <object placeholders="1" c4Name="Diagrama de componente: API" c4Type="ContainerScopeBoundary" c4Description="Terça-feira, 5 de setembro de 2023, 21:30 Horário padrão de Brasília" label="&lt;font style=&quot;font-size: 12px;&quot;&gt;&lt;b style=&quot;font-size: 12px;&quot;&gt;&lt;div style=&quot;text-align: left; font-size: 12px;&quot;&gt;%c4Name%&lt;/div&gt;&lt;/b&gt;&lt;/font&gt;&lt;div style=&quot;text-align: left; font-size: 12px;&quot;&gt;%c4Description%&lt;/div&gt;" id="cuISOjWoDYnfyEg27oqv-1">
          <mxCell style="text;html=1;strokeColor=none;fillColor=none;align=left;verticalAlign=top;whiteSpace=wrap;rounded=0;metaEdit=1;allowArrows=0;resizable=1;rotatable=0;connectable=0;recursiveResize=0;expand=0;pointerEvents=0;points=[[0.25,0,0],[0.5,0,0],[0.75,0,0],[1,0.25,0],[1,0.5,0],[1,0.75,0],[0.75,1,0],[0.5,1,0],[0.25,1,0],[0,0.75,0],[0,0.5,0],[0,0.25,0]];fontSize=12;" vertex="1" parent="1">
            <mxGeometry x="-200" y="1170" width="380" height="40" as="geometry" />
          </mxCell>
        </object>
        <mxCell id="mA7k0g0GorY28UQP-0ev-1" value="&lt;b style=&quot;font-size: 18px;&quot;&gt;&lt;font style=&quot;font-size: 18px;&quot;&gt;Legenda&lt;/font&gt;&lt;/b&gt;" style="text;html=1;align=center;verticalAlign=middle;resizable=0;points=[];autosize=1;strokeColor=none;fillColor=none;fontSize=18;" vertex="1" parent="1">
          <mxGeometry x="460" y="870" width="100" height="40" as="geometry" />
        </mxCell>
        <object placeholders="1" c4Type="Relationship" c4Description="Relacionamento" label="&lt;div style=&quot;text-align: left&quot;&gt;&lt;div style=&quot;text-align: center&quot;&gt;&lt;b&gt;%c4Description%&lt;/b&gt;&lt;/div&gt;" id="mA7k0g0GorY28UQP-0ev-3">
          <mxCell style="endArrow=blockThin;html=1;fontSize=10;fontColor=#404040;strokeWidth=1;endFill=1;strokeColor=#828282;elbow=vertical;metaEdit=1;endSize=14;startSize=14;jumpStyle=arc;jumpSize=16;rounded=0;edgeStyle=orthogonalEdgeStyle;dashed=1;" edge="1" parent="1">
            <mxGeometry width="240" relative="1" as="geometry">
              <mxPoint x="740" y="940" as="sourcePoint" />
              <mxPoint x="980" y="940" as="targetPoint" />
            </mxGeometry>
          </mxCell>
        </object>
        <object placeholders="1" c4Name="Nome do componente" c4Type="Componente" c4Technology="Tecnologia utilizada" c4Description="Descrição do componente" label="&lt;font style=&quot;font-size: 16px&quot;&gt;&lt;b&gt;%c4Name%&lt;/b&gt;&lt;/font&gt;&lt;div&gt;[%c4Type%: %c4Technology%]&lt;/div&gt;&lt;br&gt;&lt;div&gt;&lt;font style=&quot;font-size: 11px&quot;&gt;%c4Description%&lt;/font&gt;&lt;/div&gt;" id="mA7k0g0GorY28UQP-0ev-5">
          <mxCell style="rounded=1;whiteSpace=wrap;html=1;labelBackgroundColor=none;fillColor=#63BEF2;fontColor=#ffffff;align=center;arcSize=6;strokeColor=#2086C9;metaEdit=1;resizable=0;points=[[0.25,0,0],[0.5,0,0],[0.75,0,0],[1,0.25,0],[1,0.5,0],[1,0.75,0],[0.75,1,0],[0.5,1,0],[0.25,1,0],[0,0.75,0],[0,0.5,0],[0,0.25,0]];" vertex="1" parent="1">
            <mxGeometry x="740" y="960" width="240" height="120" as="geometry" />
          </mxCell>
        </object>
        <object placeholders="1" c4Name="Sistema externo" c4Type="Tipo do sistema" c4Description="Descrição do sistema externo" label="&lt;font style=&quot;font-size: 16px&quot;&gt;&lt;b&gt;%c4Name%&lt;/b&gt;&lt;/font&gt;&lt;div&gt;[%c4Type%]&lt;/div&gt;&lt;br&gt;&lt;div&gt;&lt;font style=&quot;font-size: 11px&quot;&gt;&lt;font color=&quot;#cccccc&quot;&gt;%c4Description%&lt;/font&gt;&lt;/div&gt;" id="mA7k0g0GorY28UQP-0ev-9">
          <mxCell style="rounded=1;whiteSpace=wrap;html=1;labelBackgroundColor=none;fillColor=#8C8496;fontColor=#ffffff;align=center;arcSize=10;strokeColor=#736782;metaEdit=1;resizable=0;points=[[0.25,0,0],[0.5,0,0],[0.75,0,0],[1,0.25,0],[1,0.5,0],[1,0.75,0],[0.75,1,0],[0.5,1,0],[0.25,1,0],[0,0.75,0],[0,0.5,0],[0,0.25,0]];" vertex="1" parent="1">
            <mxGeometry x="740" y="1090" width="240" height="120" as="geometry" />
          </mxCell>
        </object>
        <object placeholders="1" c4Type="Banco de dados" c4Container="Container" c4Technology="Tecnologias implementadas" c4Description="Descrição do container." label="&lt;font style=&quot;font-size: 16px&quot;&gt;&lt;b&gt;%c4Type%&lt;/b&gt;&lt;/font&gt;&lt;div&gt;[%c4Container%:&amp;nbsp;%c4Technology%]&lt;/div&gt;&lt;br&gt;&lt;div&gt;&lt;font style=&quot;font-size: 11px&quot;&gt;&lt;font color=&quot;#E6E6E6&quot;&gt;%c4Description%&lt;/font&gt;&lt;/div&gt;" id="mA7k0g0GorY28UQP-0ev-10">
          <mxCell style="shape=cylinder3;size=15;whiteSpace=wrap;html=1;boundedLbl=1;rounded=0;labelBackgroundColor=none;fillColor=#23A2D9;fontSize=12;fontColor=#ffffff;align=center;strokeColor=#0E7DAD;metaEdit=1;points=[[0.5,0,0],[1,0.25,0],[1,0.5,0],[1,0.75,0],[0.5,1,0],[0,0.75,0],[0,0.5,0],[0,0.25,0]];resizable=0;" vertex="1" parent="1">
            <mxGeometry x="470" y="1099" width="240" height="120" as="geometry" />
          </mxCell>
        </object>
        <object placeholders="1" c4Type="Interfaces" c4Container="Container" c4Technology="Tecnologias implementada" c4Description="Descrição do container" label="&lt;font style=&quot;font-size: 16px&quot;&gt;&lt;b&gt;%c4Type%&lt;/b&gt;&lt;/font&gt;&lt;div&gt;[%c4Container%:&amp;nbsp;%c4Technology%]&lt;/div&gt;&lt;br&gt;&lt;div&gt;&lt;font style=&quot;font-size: 11px&quot;&gt;&lt;font color=&quot;#E6E6E6&quot;&gt;%c4Description%&lt;/font&gt;&lt;/div&gt;" id="mA7k0g0GorY28UQP-0ev-11">
          <mxCell style="shape=mxgraph.c4.webBrowserContainer2;whiteSpace=wrap;html=1;boundedLbl=1;rounded=0;labelBackgroundColor=none;strokeColor=#118ACD;fillColor=#23A2D9;strokeColor=#118ACD;strokeColor2=#0E7DAD;fontSize=12;fontColor=#ffffff;align=center;metaEdit=1;points=[[0.5,0,0],[1,0.25,0],[1,0.5,0],[1,0.75,0],[0.5,1,0],[0,0.75,0],[0,0.5,0],[0,0.25,0]];resizable=0;" vertex="1" parent="1">
            <mxGeometry x="470" y="920" width="240" height="160" as="geometry" />
          </mxCell>
        </object>
      </root>
    </mxGraphModel>
  </diagram>
</mxfile>
